{"buffers":[{"uri":"d-snooker.min.bin","byteLength":28084}],"asset":{"version":"2.0","generator":"gltfpack 0.20"},"extensionsUsed":["KHR_mesh_quantization","KHR_texture_transform","KHR_materials_ior","KHR_materials_specular","KHR_lights_punctual"],"extensionsRequired":["KHR_mesh_quantization"],"bufferViews":[{"buffer":0,"byteOffset":0,"byteLength":13768,"byteStride":8,"target":34962},{"buffer":0,"byteOffset":13768,"byteLength":6884,"byteStride":4,"target":34962},{"buffer":0,"byteOffset":20652,"byteLength":6384,"target":34963},{"buffer":0,"byteOffset":27036,"byteLength":1048,"byteStride":4,"target":34962}],"accessors":[{"bufferView":0,"byteOffset":0,"componentType":5123,"count":16,"type":"VEC3","min":[1019,1018,3572],"max":[15364,8190,3578]},{"bufferView":1,"byteOffset":0,"componentType":5120,"count":16,"type":"VEC3","normalized":true},{"bufferView":2,"byteOffset":0,"componentType":5123,"count":24,"type":"SCALAR"},{"bufferView":0,"byteOffset":128,"componentType":5123,"count":262,"type":"VEC3","min":[693,692,4365],"max":[15690,8516,4528]},{"bufferView":1,"byteOffset":64,"componentType":5120,"count":262,"type":"VEC3","normalized":true},{"bufferView":3,"byteOffset":0,"componentType":5123,"count":262,"type":"VEC2","normalized":true},{"bufferView":2,"byteOffset":48,"componentType":5123,"count":519,"type":"SCALAR"},{"bufferView":0,"byteOffset":2224,"componentType":5123,"count":73,"type":"VEC3","min":[693,692,4528],"max":[15690,8516,4528]},{"bufferView":1,"byteOffset":1112,"componentType":5120,"count":73,"type":"VEC3","normalized":true},{"bufferView":2,"byteOffset":1086,"componentType":5123,"count":183,"type":"SCALAR"},{"bufferView":0,"byteOffset":2808,"componentType":5123,"count":456,"type":"VEC3","min":[1,0,3836],"max":[16382,9209,4775]},{"bufferView":1,"byteOffset":1404,"componentType":5120,"count":456,"type":"VEC3","normalized":true},{"bufferView":2,"byteOffset":1452,"componentType":5123,"count":828,"type":"SCALAR"},{"bufferView":0,"byteOffset":6456,"componentType":5123,"count":220,"type":"VEC3","min":[0,0,0],"max":[16383,9209,4775]},{"bufferView":1,"byteOffset":3228,"componentType":5120,"count":220,"type":"VEC3","normalized":true},{"bufferView":2,"byteOffset":3108,"componentType":5123,"count":372,"type":"SCALAR"},{"bufferView":0,"byteOffset":8216,"componentType":5123,"count":340,"type":"VEC3","min":[723,723,4530],"max":[15660,8486,4775]},{"bufferView":1,"byteOffset":4108,"componentType":5120,"count":340,"type":"VEC3","normalized":true},{"bufferView":2,"byteOffset":3852,"componentType":5123,"count":732,"type":"SCALAR"},{"bufferView":0,"byteOffset":10936,"componentType":5123,"count":354,"type":"VEC3","min":[576,397,3681],"max":[15807,8812,4530]},{"bufferView":1,"byteOffset":5468,"componentType":5120,"count":354,"type":"VEC3","normalized":true},{"bufferView":2,"byteOffset":5316,"componentType":5123,"count":534,"type":"SCALAR"}],"samplers":[{"magFilter":9729,"minFilter":9987}],"images":[{"uri":"d-cloth-hires.png"}],"textures":[{"sampler":0,"source":0}],"materials":[{"name":"cloth","pbrMetallicRoughness":{"baseColorTexture":{"index":0,"extensions":{"KHR_texture_transform":{"offset":[-0.0395052433,-0.00751566887],"scale":[17.2612591,16.2573261]}}},"metallicFactor":0,"roughnessFactor":0.5}},{"name":"clothshade","pbrMetallicRoughness":{"baseColorFactor":[0,0.119279556,0.0016561501,1],"metallicFactor":0,"roughnessFactor":0.686546803}},{"name":"Material.001","pbrMetallicRoughness":{"baseColorFactor":[0.310820282,0.126197532,0,1],"metallicFactor":0,"roughnessFactor":0.191262141}},{"name":"wood","pbrMetallicRoughness":{"baseColorFactor":[0.0352196917,0.0140256751,0,1],"metallicFactor":0,"roughnessFactor":0.477669895}},{"name":"CushionBlue","pbrMetallicRoughness":{"baseColorFactor":[0.00580338342,0.288303137,0.00789248478,1],"metallicFactor":0,"roughnessFactor":0.805098176}},{"name":"blackpocket","pbrMetallicRoughness":{"baseColorFactor":[0.0122153433,0.0122153433,0.0122153433,1],"metallicFactor":0,"roughnessFactor":0.714723945},"extensions":{"KHR_materials_ior":{"ior":1.45000005},"KHR_materials_specular":{"specularFactor":0.128834367}}}],"meshes":[{"primitives":[{"attributes":{"POSITION":0,"NORMAL":1},"indices":2},{"attributes":{"POSITION":3,"NORMAL":4,"TEXCOORD_0":5},"indices":6,"material":0},{"attributes":{"POSITION":7,"NORMAL":8},"indices":9,"material":1},{"attributes":{"POSITION":10,"NORMAL":11},"indices":12,"material":2},{"attributes":{"POSITION":13,"NORMAL":14},"indices":15,"material":3},{"attributes":{"POSITION":16,"NORMAL":17},"indices":18,"material":4},{"attributes":{"POSITION":19,"NORMAL":20},"indices":21,"material":5}]}],"nodes":[{"mesh":0,"translation":[-25.1272106,-14.124115,-14.3901348],"scale":[0.00306747342,0.00306747342,0.00306747342]},{"name":"Point","translation":[-16,0.5,19],"extensions":{"KHR_lights_punctual":{"light":0}}},{"name":"Point.001","translation":[17,-0.200000003,20],"extensions":{"KHR_lights_punctual":{"light":1}}}],"scenes":[{"name":"Scene","nodes":[0,1,2]}],"scene":0,"extensions":{"KHR_lights_punctual":{"lights":[{"type":"point","color":[0.855544746,0.834791005,0.674365997],"intensity":5.43514156},{"type":"point","color":[0.698192716,0.698192716,0.698192716],"intensity":5.43514156}]}}}