{
	"asset":{
		"generator":"Khronos glTF Blender I/O v4.1.63",
		"version":"2.0"
	},
	"extensionsUsed":[
		"KHR_lights_punctual",
		"KHR_materials_specular",
		"KHR_materials_ior"
	],
	"extensionsRequired":[
		"KHR_lights_punctual"
	],
	"extensions":{
		"KHR_lights_punctual":{
			"lights":[
				{
					"color":[
						0.8555447459220886,
						0.8347910046577454,
						0.6743659973144531
					],
					"intensity":5.435141387578143,
					"type":"point",
					"name":"Point"
				},
				{
					"color":[
						0.6981927156448364,
						0.6981927156448364,
						0.6981927156448364
					],
					"intensity":5.435141387578143,
					"type":"point",
					"name":"Point.001"
				}
			]
		}
	},
	"scene":0,
	"scenes":[
		{
			"name":"Scene",
			"nodes":[
				0,
				1,
				2,
				3,
				4,
				5,
				6,
				7,
				8,
				9,
				10,
				11,
				12
			]
		}
	],
	"nodes":[
		{
			"mesh":0,
			"name":"BallExtentsForMirror",
			"scale":[
				22,
				11,
				0.009999999776482582
			],
			"translation":[
				0,
				0,
				-3.4245803356170654
			]
		},
		{
			"mesh":1,
			"name":"FullCloth",
			"translation":[
				0,
				0,
				-0.75
			]
		},
		{
			"mesh":2,
			"name":"CornerMetal",
			"scale":[
				1.5949853658676147,
				1.5949853658676147,
				1.4400869607925415
			],
			"translation":[
				23.529510498046875,
				-12.455595016479492,
				-0.5090751051902771
			]
		},
		{
			"mesh":3,
			"name":"EndRail",
			"translation":[
				23.283540725708008,
				-9.950918197631836,
				-0.11895889788866043
			]
		},
		{
			"mesh":4,
			"name":"EndCushion",
			"scale":[
				1,
				5.174618244171143,
				0.37582919001579285
			],
			"translation":[
				23.50171661376953,
				-5.17411470413208,
				-0.11999999731779099
			]
		},
		{
			"mesh":5,
			"name":"Cube",
			"scale":[
				0.864160418510437,
				1,
				1.2570855617523193
			],
			"translation":[
				0,
				-13.123759269714355,
				-1
			]
		},
		{
			"extensions":{
				"KHR_lights_punctual":{
					"light":0
				}
			},
			"name":"Point",
			"translation":[
				-16,
				0.5,
				19
			]
		},
		{
			"extensions":{
				"KHR_lights_punctual":{
					"light":1
				}
			},
			"name":"Point.001",
			"translation":[
				17,
				-0.20000000298023224,
				20
			]
		},
		{
			"mesh":6,
			"name":"SideRail",
			"rotation":[
				0.7071068286895752,
				0.7071068286895752,
				0,
				0
			],
			"scale":[
				-1,
				-1,
				-1
			],
			"translation":[
				20.887311935424805,
				-12.280158042907715,
				-0.11895889788866043
			]
		},
		{
			"mesh":7,
			"name":"SideCushion",
			"rotation":[
				0.7071068286895752,
				0.7071068286895752,
				0,
				0
			],
			"scale":[
				-1,
				-5.174618244171143,
				-0.37582919001579285
			],
			"translation":[
				16.11050796508789,
				-12.498333930969238,
				-0.11999999731779099
			]
		},
		{
			"mesh":8,
			"name":"Legs",
			"scale":[
				2.3899998664855957,
				11.089882850646973,
				4.689999580383301
			],
			"translation":[
				14.47668170928955,
				-0.1310420036315918,
				-9.468948364257812
			]
		},
		{
			"mesh":9,
			"name":"centercup",
			"translation":[
				-0.006176173686981201,
				-11.89818000793457,
				-2.099132537841797
			]
		},
		{
			"mesh":10,
			"name":"centercup.001",
			"rotation":[
				0,
				0,
				0.3826834559440613,
				0.9238795638084412
			],
			"translation":[
				22.156749725341797,
				-11.200557708740234,
				-2.099132537841797
			]
		}
	],
	"materials":[
		{
			"name":"cloth",
			"pbrMetallicRoughness":{
				"baseColorTexture":{
					"index":0
				},
				"metallicFactor":0,
				"roughnessFactor":0.5
			}
		},
		{
			"name":"clothshade",
			"pbrMetallicRoughness":{
				"baseColorFactor":[
					0,
					0.11927955597639084,
					0.0016561500960960984,
					1
				],
				"metallicFactor":0,
				"roughnessFactor":0.686546802520752
			}
		},
		{
			"name":"Material.001",
			"pbrMetallicRoughness":{
				"baseColorFactor":[
					0.3108202815055847,
					0.12619753181934357,
					0,
					1
				],
				"metallicFactor":0,
				"roughnessFactor":0.1912621408700943
			}
		},
		{
			"name":"wood",
			"pbrMetallicRoughness":{
				"baseColorFactor":[
					0.035219691693782806,
					0.014025675132870674,
					0,
					1
				],
				"metallicFactor":0,
				"roughnessFactor":0.477669894695282
			}
		},
		{
			"name":"CushionBlue",
			"pbrMetallicRoughness":{
				"baseColorFactor":[
					0.00580338342115283,
					0.2883031368255615,
					0.007892484776675701,
					1
				],
				"metallicFactor":0,
				"roughnessFactor":0.8050981760025024
			}
		},
		{
			"extensions":{
				"KHR_materials_specular":{
					"specularFactor":0.12883436679840088
				},
				"KHR_materials_ior":{
					"ior":1.4500000476837158
				}
			},
			"name":"blackpocket",
			"pbrMetallicRoughness":{
				"baseColorFactor":[
					0.012215343303978443,
					0.012215343303978443,
					0.012215343303978443,
					1
				],
				"metallicFactor":0,
				"roughnessFactor":0.7147239446640015
			}
		}
	],
	"meshes":[
		{
			"name":"Cube.007",
			"primitives":[
				{
					"attributes":{
						"POSITION":0,
						"NORMAL":1,
						"TEXCOORD_0":2
					},
					"indices":3
				}
			]
		},
		{
			"name":"Cube.001",
			"primitives":[
				{
					"attributes":{
						"POSITION":4,
						"NORMAL":5,
						"TEXCOORD_0":6
					},
					"indices":7,
					"material":0
				},
				{
					"attributes":{
						"POSITION":8,
						"NORMAL":9,
						"TEXCOORD_0":10
					},
					"indices":11,
					"material":1
				}
			]
		},
		{
			"name":"Cube.004",
			"primitives":[
				{
					"attributes":{
						"POSITION":12,
						"NORMAL":13,
						"TEXCOORD_0":14
					},
					"indices":15,
					"material":2
				}
			]
		},
		{
			"name":"Cube.002",
			"primitives":[
				{
					"attributes":{
						"POSITION":16,
						"NORMAL":17,
						"TEXCOORD_0":18
					},
					"indices":19,
					"material":3
				}
			]
		},
		{
			"name":"Cube",
			"primitives":[
				{
					"attributes":{
						"POSITION":20,
						"NORMAL":21,
						"TEXCOORD_0":22
					},
					"indices":23,
					"material":4
				}
			]
		},
		{
			"name":"Cube.008",
			"primitives":[
				{
					"attributes":{
						"POSITION":24,
						"NORMAL":25,
						"TEXCOORD_0":26
					},
					"indices":27,
					"material":2
				}
			]
		},
		{
			"name":"Cube.003",
			"primitives":[
				{
					"attributes":{
						"POSITION":28,
						"NORMAL":29,
						"TEXCOORD_0":30
					},
					"indices":31,
					"material":3
				}
			]
		},
		{
			"name":"SideCushion",
			"primitives":[
				{
					"attributes":{
						"POSITION":32,
						"NORMAL":33,
						"TEXCOORD_0":34
					},
					"indices":35,
					"material":4
				}
			]
		},
		{
			"name":"Cube.006",
			"primitives":[
				{
					"attributes":{
						"POSITION":36,
						"NORMAL":37,
						"TEXCOORD_0":38
					},
					"indices":39,
					"material":3
				}
			]
		},
		{
			"name":"Cylinder",
			"primitives":[
				{
					"attributes":{
						"POSITION":40,
						"NORMAL":41,
						"TEXCOORD_0":42
					},
					"indices":43,
					"material":5
				}
			]
		},
		{
			"name":"Cylinder.001",
			"primitives":[
				{
					"attributes":{
						"POSITION":44,
						"NORMAL":45,
						"TEXCOORD_0":46
					},
					"indices":47,
					"material":5
				}
			]
		}
	],
	"textures":[
		{
			"sampler":0,
			"source":0
		}
	],
	"images":[
		{
			"mimeType":"image/png",
			"name":"d-cloth-hires",
			"uri":"d-cloth-hires.png"
		}
	],
	"accessors":[
		{
			"bufferView":0,
			"componentType":5126,
			"count":16,
			"max":[
				1,
				1,
				1
			],
			"min":[
				-1,
				-1,
				-1
			],
			"type":"VEC3"
		},
		{
			"bufferView":1,
			"componentType":5126,
			"count":16,
			"type":"VEC3"
		},
		{
			"bufferView":2,
			"componentType":5126,
			"count":16,
			"type":"VEC2"
		},
		{
			"bufferView":3,
			"componentType":5123,
			"count":24,
			"type":"SCALAR"
		},
		{
			"bufferView":4,
			"componentType":5126,
			"count":262,
			"max":[
				23,
				12,
				0.2500000596046448
			],
			"min":[
				-23,
				-12,
				-0.2500000596046448
			],
			"type":"VEC3"
		},
		{
			"bufferView":5,
			"componentType":5126,
			"count":262,
			"type":"VEC3"
		},
		{
			"bufferView":6,
			"componentType":5126,
			"count":262,
			"type":"VEC2"
		},
		{
			"bufferView":7,
			"componentType":5123,
			"count":519,
			"type":"SCALAR"
		},
		{
			"bufferView":8,
			"componentType":5126,
			"count":73,
			"max":[
				23,
				12,
				0.2500000596046448
			],
			"min":[
				-23,
				-12,
				0.2499999701976776
			],
			"type":"VEC3"
		},
		{
			"bufferView":9,
			"componentType":5126,
			"count":73,
			"type":"VEC3"
		},
		{
			"bufferView":10,
			"componentType":5126,
			"count":73,
			"type":"VEC2"
		},
		{
			"bufferView":11,
			"componentType":5123,
			"count":183,
			"type":"SCALAR"
		},
		{
			"bufferView":12,
			"componentType":5126,
			"count":348,
			"max":[
				1,
				16.664323806762695,
				0.5320239663124084
			],
			"min":[
				-30.50436019897461,
				-1.0458800792694092,
				-1.4679760932922363
			],
			"type":"VEC3"
		},
		{
			"bufferView":13,
			"componentType":5126,
			"count":348,
			"type":"VEC3"
		},
		{
			"bufferView":14,
			"componentType":5126,
			"count":348,
			"type":"VEC2"
		},
		{
			"bufferView":15,
			"componentType":5123,
			"count":636,
			"type":"SCALAR"
		},
		{
			"bufferView":16,
			"componentType":5126,
			"count":68,
			"max":[
				1.8436678647994995,
				20.875871658325195,
				0.3760445713996887
			],
			"min":[
				-48.41075134277344,
				-0.9740352630615234,
				-2.504955291748047
			],
			"type":"VEC3"
		},
		{
			"bufferView":17,
			"componentType":5126,
			"count":68,
			"type":"VEC3"
		},
		{
			"bufferView":18,
			"componentType":5126,
			"count":68,
			"type":"VEC2"
		},
		{
			"bufferView":19,
			"componentType":5123,
			"count":108,
			"type":"SCALAR"
		},
		{
			"bufferView":20,
			"componentType":5126,
			"count":144,
			"max":[
				-0.5913658142089844,
				3.03310227394104,
				1
			],
			"min":[
				-46.41206741333008,
				-1.033296823501587,
				-1
			],
			"type":"VEC3"
		},
		{
			"bufferView":21,
			"componentType":5126,
			"count":144,
			"type":"VEC3"
		},
		{
			"bufferView":22,
			"componentType":5126,
			"count":144,
			"type":"VEC2"
		},
		{
			"bufferView":23,
			"componentType":5123,
			"count":348,
			"type":"SCALAR"
		},
		{
			"bufferView":24,
			"componentType":5126,
			"count":108,
			"max":[
				1.0000001192092896,
				27.247520446777344,
				1
			],
			"min":[
				-1.0000001192092896,
				-1,
				-1.2911514043807983
			],
			"type":"VEC3"
		},
		{
			"bufferView":25,
			"componentType":5126,
			"count":108,
			"type":"VEC3"
		},
		{
			"bufferView":26,
			"componentType":5126,
			"count":108,
			"type":"VEC2"
		},
		{
			"bufferView":27,
			"componentType":5123,
			"count":192,
			"type":"SCALAR"
		},
		{
			"bufferView":28,
			"componentType":5126,
			"count":88,
			"max":[
				1.8439586162567139,
				42.74866485595703,
				0.3760445713996887
			],
			"min":[
				-26.404277801513672,
				-0.974034309387207,
				-2.504955291748047
			],
			"type":"VEC3"
		},
		{
			"bufferView":29,
			"componentType":5126,
			"count":88,
			"type":"VEC3"
		},
		{
			"bufferView":30,
			"componentType":5126,
			"count":88,
			"type":"VEC2"
		},
		{
			"bufferView":31,
			"componentType":5123,
			"count":144,
			"type":"SCALAR"
		},
		{
			"bufferView":32,
			"componentType":5126,
			"count":204,
			"max":[
				-0.5913658142089844,
				7.260039329528809,
				1
			],
			"min":[
				-24.405303955078125,
				-1.033296823501587,
				-1
			],
			"type":"VEC3"
		},
		{
			"bufferView":33,
			"componentType":5126,
			"count":204,
			"type":"VEC3"
		},
		{
			"bufferView":34,
			"componentType":5126,
			"count":204,
			"type":"VEC2"
		},
		{
			"bufferView":35,
			"componentType":5123,
			"count":384,
			"type":"SCALAR"
		},
		{
			"bufferView":36,
			"componentType":5126,
			"count":64,
			"max":[
				1,
				1,
				1
			],
			"min":[
				-13.114377975463867,
				-1,
				-1.0492935180664062
			],
			"type":"VEC3"
		},
		{
			"bufferView":37,
			"componentType":5126,
			"count":64,
			"type":"VEC3"
		},
		{
			"bufferView":38,
			"componentType":5126,
			"count":64,
			"type":"VEC2"
		},
		{
			"bufferView":39,
			"componentType":5123,
			"count":120,
			"type":"SCALAR"
		},
		{
			"bufferView":40,
			"componentType":5126,
			"count":86,
			"max":[
				1.0061025619506836,
				24.803117752075195,
				1.6033034324645996
			],
			"min":[
				-0.9925345182418823,
				-1.0067553520202637,
				-1
			],
			"type":"VEC3"
		},
		{
			"bufferView":41,
			"componentType":5126,
			"count":86,
			"type":"VEC3"
		},
		{
			"bufferView":42,
			"componentType":5126,
			"count":86,
			"type":"VEC2"
		},
		{
			"bufferView":43,
			"componentType":5123,
			"count":162,
			"type":"SCALAR"
		},
		{
			"bufferView":44,
			"componentType":5126,
			"count":268,
			"max":[
				17.192691802978516,
				48.527069091796875,
				1.6041290760040283
			],
			"min":[
				-32.68708801269531,
				-1.3527116775512695,
				-1
			],
			"type":"VEC3"
		},
		{
			"bufferView":45,
			"componentType":5126,
			"count":268,
			"type":"VEC3"
		},
		{
			"bufferView":46,
			"componentType":5126,
			"count":268,
			"type":"VEC2"
		},
		{
			"bufferView":47,
			"componentType":5123,
			"count":372,
			"type":"SCALAR"
		}
	],
	"bufferViews":[
		{
			"buffer":0,
			"byteLength":192,
			"byteOffset":0,
			"target":34962
		},
		{
			"buffer":0,
			"byteLength":192,
			"byteOffset":192,
			"target":34962
		},
		{
			"buffer":0,
			"byteLength":128,
			"byteOffset":384,
			"target":34962
		},
		{
			"buffer":0,
			"byteLength":48,
			"byteOffset":512,
			"target":34963
		},
		{
			"buffer":0,
			"byteLength":3144,
			"byteOffset":560,
			"target":34962
		},
		{
			"buffer":0,
			"byteLength":3144,
			"byteOffset":3704,
			"target":34962
		},
		{
			"buffer":0,
			"byteLength":2096,
			"byteOffset":6848,
			"target":34962
		},
		{
			"buffer":0,
			"byteLength":1038,
			"byteOffset":8944,
			"target":34963
		},
		{
			"buffer":0,
			"byteLength":876,
			"byteOffset":9984,
			"target":34962
		},
		{
			"buffer":0,
			"byteLength":876,
			"byteOffset":10860,
			"target":34962
		},
		{
			"buffer":0,
			"byteLength":584,
			"byteOffset":11736,
			"target":34962
		},
		{
			"buffer":0,
			"byteLength":366,
			"byteOffset":12320,
			"target":34963
		},
		{
			"buffer":0,
			"byteLength":4176,
			"byteOffset":12688,
			"target":34962
		},
		{
			"buffer":0,
			"byteLength":4176,
			"byteOffset":16864,
			"target":34962
		},
		{
			"buffer":0,
			"byteLength":2784,
			"byteOffset":21040,
			"target":34962
		},
		{
			"buffer":0,
			"byteLength":1272,
			"byteOffset":23824,
			"target":34963
		},
		{
			"buffer":0,
			"byteLength":816,
			"byteOffset":25096,
			"target":34962
		},
		{
			"buffer":0,
			"byteLength":816,
			"byteOffset":25912,
			"target":34962
		},
		{
			"buffer":0,
			"byteLength":544,
			"byteOffset":26728,
			"target":34962
		},
		{
			"buffer":0,
			"byteLength":216,
			"byteOffset":27272,
			"target":34963
		},
		{
			"buffer":0,
			"byteLength":1728,
			"byteOffset":27488,
			"target":34962
		},
		{
			"buffer":0,
			"byteLength":1728,
			"byteOffset":29216,
			"target":34962
		},
		{
			"buffer":0,
			"byteLength":1152,
			"byteOffset":30944,
			"target":34962
		},
		{
			"buffer":0,
			"byteLength":696,
			"byteOffset":32096,
			"target":34963
		},
		{
			"buffer":0,
			"byteLength":1296,
			"byteOffset":32792,
			"target":34962
		},
		{
			"buffer":0,
			"byteLength":1296,
			"byteOffset":34088,
			"target":34962
		},
		{
			"buffer":0,
			"byteLength":864,
			"byteOffset":35384,
			"target":34962
		},
		{
			"buffer":0,
			"byteLength":384,
			"byteOffset":36248,
			"target":34963
		},
		{
			"buffer":0,
			"byteLength":1056,
			"byteOffset":36632,
			"target":34962
		},
		{
			"buffer":0,
			"byteLength":1056,
			"byteOffset":37688,
			"target":34962
		},
		{
			"buffer":0,
			"byteLength":704,
			"byteOffset":38744,
			"target":34962
		},
		{
			"buffer":0,
			"byteLength":288,
			"byteOffset":39448,
			"target":34963
		},
		{
			"buffer":0,
			"byteLength":2448,
			"byteOffset":39736,
			"target":34962
		},
		{
			"buffer":0,
			"byteLength":2448,
			"byteOffset":42184,
			"target":34962
		},
		{
			"buffer":0,
			"byteLength":1632,
			"byteOffset":44632,
			"target":34962
		},
		{
			"buffer":0,
			"byteLength":768,
			"byteOffset":46264,
			"target":34963
		},
		{
			"buffer":0,
			"byteLength":768,
			"byteOffset":47032,
			"target":34962
		},
		{
			"buffer":0,
			"byteLength":768,
			"byteOffset":47800,
			"target":34962
		},
		{
			"buffer":0,
			"byteLength":512,
			"byteOffset":48568,
			"target":34962
		},
		{
			"buffer":0,
			"byteLength":240,
			"byteOffset":49080,
			"target":34963
		},
		{
			"buffer":0,
			"byteLength":1032,
			"byteOffset":49320,
			"target":34962
		},
		{
			"buffer":0,
			"byteLength":1032,
			"byteOffset":50352,
			"target":34962
		},
		{
			"buffer":0,
			"byteLength":688,
			"byteOffset":51384,
			"target":34962
		},
		{
			"buffer":0,
			"byteLength":324,
			"byteOffset":52072,
			"target":34963
		},
		{
			"buffer":0,
			"byteLength":3216,
			"byteOffset":52396,
			"target":34962
		},
		{
			"buffer":0,
			"byteLength":3216,
			"byteOffset":55612,
			"target":34962
		},
		{
			"buffer":0,
			"byteLength":2144,
			"byteOffset":58828,
			"target":34962
		},
		{
			"buffer":0,
			"byteLength":744,
			"byteOffset":60972,
			"target":34963
		}
	],
	"samplers":[
		{
			"magFilter":9729,
			"minFilter":9987
		}
	],
	"buffers":[
		{
			"byteLength":61716,
			"uri":"d-snooker.bin"
		}
	]
}
