{
    "asset" : {
        "generator" : "Khronos glTF Blender I/O v0.9.36",
        "version" : "2.0"
    },
    "scene" : 0,
    "scenes" : [
        {
            "name" : "Scene",
            "nodes" : [
                0,
                1,
                2,
                3,
                4,
                5,
                6,
                7,
                8,
                9
            ]
        }
    ],
    "nodes" : [
        {
            "mesh" : 0,
            "name" : "BallExtentsForMirror",
            "scale" : [
                22,
                11,
                1
            ],
            "translation" : [
                0,
                0,
                -3.4245803356170654
            ]
        },
        {
            "mesh" : 1,
            "name" : "FullCloth",
            "scale" : [
                23,
                12,
                0.25
            ],
            "translation" : [
                0,
                0,
                -0.75
            ]
        },
        {
            "mesh" : 2,
            "name" : "CornerMetal",
            "scale" : [
                1.5949853658676147,
                1.5949853658676147,
                1.4400869607925415
            ],
            "translation" : [
                23.529510498046875,
                -12.455595016479492,
                -0.5090751051902771
            ]
        },
        {
            "mesh" : 3,
            "name" : "Room",
            "scale" : [
                45.836509704589844,
                34.975059509277344,
                13.639999389648438
            ],
            "translation" : [
                0.04567992687225342,
                -0.1310420036315918,
                -0.5000021457672119
            ]
        },
        {
            "mesh" : 4,
            "name" : "EndRail",
            "translation" : [
                23.283540725708008,
                -9.950918197631836,
                -0.11895889788866043
            ]
        },
        {
            "mesh" : 5,
            "name" : "EndCushion",
            "scale" : [
                1,
                5.174618244171143,
                0.37582919001579285
            ],
            "translation" : [
                23.50171661376953,
                -5.17411470413208,
                -0.11999999731779099
            ]
        },
        {
            "mesh" : 6,
            "name" : "Cube",
            "scale" : [
                0.864160418510437,
                1,
                1.2570855617523193
            ],
            "translation" : [
                0,
                -13.123759269714355,
                -1
            ]
        },
        {
            "mesh" : 7,
            "name" : "SideRail",
            "rotation" : [
                0,
                0,
                0.7071067690849304,
                0.7071067690849304
            ],
            "scale" : [
                -1,
                1,
                1
            ],
            "translation" : [
                20.887311935424805,
                -12.280158042907715,
                -0.11895889788866043
            ]
        },
        {
            "mesh" : 8,
            "name" : "SideCushion",
            "rotation" : [
                0,
                0,
                0.7071067690849304,
                0.7071067690849304
            ],
            "scale" : [
                -1,
                5.174618244171143,
                0.37582919001579285
            ],
            "translation" : [
                16.11050796508789,
                -12.498333930969238,
                -0.11999999731779099
            ]
        },
        {
            "mesh" : 9,
            "name" : "Legs",
            "scale" : [
                2.3899998664855957,
                11.089882850646973,
                4.689999580383301
            ],
            "translation" : [
                14.47668170928955,
                -0.1310420036315918,
                -9.468948364257812
            ]
        }
    ],
    "materials" : [
        {
            "doubleSided" : true,
            "name" : "Material.004",
            "pbrMetallicRoughness" : {
                "baseColorTexture" : {
                    "index" : 0,
                    "texCoord" : 0
                },
                "metallicFactor" : 0,
                "roughnessFactor" : 0.5
            }
        },
        {
            "doubleSided" : true,
            "name" : "Material.001",
            "pbrMetallicRoughness" : {
                "baseColorFactor" : [
                    0.476980060338974,
                    0.476980060338974,
                    0.476980060338974,
                    1
                ],
                "metallicFactor" : 0,
                "roughnessFactor" : 0
            }
        },
        {
            "doubleSided" : true,
            "name" : "Material.002",
            "pbrMetallicRoughness" : {
                "baseColorFactor" : [
                    0.3844054341316223,
                    0.17746351659297943,
                    0,
                    1
                ],
                "metallicFactor" : 0,
                "roughnessFactor" : 0
            }
        },
        {
            "doubleSided" : true,
            "name" : "Material",
            "pbrMetallicRoughness" : {
                "baseColorFactor" : [
                    0.32636725902557373,
                    0.0017927074804902077,
                    0,
                    1
                ],
                "metallicFactor" : 0,
                "roughnessFactor" : 0
            }
        },
        {
            "name" : "CushionBlue",
            "pbrMetallicRoughness" : {
                "baseColorFactor" : [
                    0.011600205674767494,
                    0.07294008135795593,
                    0.43855980038642883,
                    1
                ],
                "metallicFactor" : 0,
                "roughnessFactor" : 0.5
            }
        }
    ],
    "meshes" : [
        {
            "name" : "Cube.007",
            "primitives" : [
                {
                    "attributes" : {
                        "POSITION" : 0,
                        "NORMAL" : 1,
                        "TEXCOORD_0" : 2
                    },
                    "indices" : 3
                }
            ]
        },
        {
            "name" : "Cube.001",
            "primitives" : [
                {
                    "attributes" : {
                        "POSITION" : 4,
                        "NORMAL" : 5,
                        "TEXCOORD_0" : 6
                    },
                    "indices" : 7,
                    "material" : 0
                }
            ]
        },
        {
            "name" : "Cube.004",
            "primitives" : [
                {
                    "attributes" : {
                        "POSITION" : 8,
                        "NORMAL" : 9,
                        "TEXCOORD_0" : 10
                    },
                    "indices" : 11,
                    "material" : 1
                }
            ]
        },
        {
            "name" : "Cube.005",
            "primitives" : [
                {
                    "attributes" : {
                        "POSITION" : 12,
                        "NORMAL" : 13,
                        "TEXCOORD_0" : 14
                    },
                    "indices" : 15,
                    "material" : 2
                }
            ]
        },
        {
            "name" : "Cube.002",
            "primitives" : [
                {
                    "attributes" : {
                        "POSITION" : 16,
                        "NORMAL" : 17,
                        "TEXCOORD_0" : 18
                    },
                    "indices" : 19,
                    "material" : 3
                }
            ]
        },
        {
            "name" : "Cube",
            "primitives" : [
                {
                    "attributes" : {
                        "POSITION" : 20,
                        "NORMAL" : 21,
                        "TEXCOORD_0" : 22
                    },
                    "indices" : 23,
                    "material" : 4
                }
            ]
        },
        {
            "name" : "Cube.008",
            "primitives" : [
                {
                    "attributes" : {
                        "POSITION" : 24,
                        "NORMAL" : 25,
                        "TEXCOORD_0" : 26
                    },
                    "indices" : 27,
                    "material" : 1
                }
            ]
        },
        {
            "name" : "Cube.003",
            "primitives" : [
                {
                    "attributes" : {
                        "POSITION" : 28,
                        "NORMAL" : 29,
                        "TEXCOORD_0" : 30
                    },
                    "indices" : 31,
                    "material" : 3
                }
            ]
        },
        {
            "name" : "SideCushion",
            "primitives" : [
                {
                    "attributes" : {
                        "POSITION" : 32,
                        "NORMAL" : 33,
                        "TEXCOORD_0" : 34
                    },
                    "indices" : 35,
                    "material" : 4
                }
            ]
        },
        {
            "name" : "Cube.006",
            "primitives" : [
                {
                    "attributes" : {
                        "POSITION" : 36,
                        "NORMAL" : 37,
                        "TEXCOORD_0" : 38
                    },
                    "indices" : 39,
                    "material" : 3
                }
            ]
        }
    ],
    "textures" : [
        {
            "source" : 0
        }
    ],
    "images" : [
        {
            "mimeType" : "image/jpeg",
            "name" : "cushion",
            "uri" : "cushion.jpg"
        }
    ],
    "accessors" : [
        {
            "bufferView" : 0,
            "componentType" : 5126,
            "count" : 16,
            "max" : [
                1,
                1,
                1
            ],
            "min" : [
                -1,
                -1,
                -1
            ],
            "type" : "VEC3"
        },
        {
            "bufferView" : 1,
            "componentType" : 5126,
            "count" : 16,
            "type" : "VEC3"
        },
        {
            "bufferView" : 2,
            "componentType" : 5126,
            "count" : 16,
            "type" : "VEC2"
        },
        {
            "bufferView" : 3,
            "componentType" : 5123,
            "count" : 24,
            "type" : "SCALAR"
        },
        {
            "bufferView" : 4,
            "componentType" : 5126,
            "count" : 356,
            "max" : [
                1,
                1,
                1.000000238418579
            ],
            "min" : [
                -1,
                -1,
                -1.000000238418579
            ],
            "type" : "VEC3"
        },
        {
            "bufferView" : 5,
            "componentType" : 5126,
            "count" : 356,
            "type" : "VEC3"
        },
        {
            "bufferView" : 6,
            "componentType" : 5126,
            "count" : 356,
            "type" : "VEC2"
        },
        {
            "bufferView" : 7,
            "componentType" : 5123,
            "count" : 636,
            "type" : "SCALAR"
        },
        {
            "bufferView" : 8,
            "componentType" : 5126,
            "count" : 552,
            "max" : [
                1,
                16.66490936279297,
                0.5320244431495667
            ],
            "min" : [
                -30.50436019897461,
                -1.046463131904602,
                -1.4679760932922363
            ],
            "type" : "VEC3"
        },
        {
            "bufferView" : 9,
            "componentType" : 5126,
            "count" : 552,
            "type" : "VEC3"
        },
        {
            "bufferView" : 10,
            "componentType" : 5126,
            "count" : 552,
            "type" : "VEC2"
        },
        {
            "bufferView" : 11,
            "componentType" : 5123,
            "count" : 1056,
            "type" : "SCALAR"
        },
        {
            "bufferView" : 12,
            "componentType" : 5126,
            "count" : 4,
            "max" : [
                1,
                1,
                -1
            ],
            "min" : [
                -1,
                -1,
                -1
            ],
            "type" : "VEC3"
        },
        {
            "bufferView" : 13,
            "componentType" : 5126,
            "count" : 4,
            "type" : "VEC3"
        },
        {
            "bufferView" : 14,
            "componentType" : 5126,
            "count" : 4,
            "type" : "VEC2"
        },
        {
            "bufferView" : 15,
            "componentType" : 5123,
            "count" : 6,
            "type" : "SCALAR"
        },
        {
            "bufferView" : 16,
            "componentType" : 5126,
            "count" : 120,
            "max" : [
                1.8439610004425049,
                20.875869750976562,
                0.3760445713996887
            ],
            "min" : [
                -48.41103744506836,
                -0.974034309387207,
                -0.3768703043460846
            ],
            "type" : "VEC3"
        },
        {
            "bufferView" : 17,
            "componentType" : 5126,
            "count" : 120,
            "type" : "VEC3"
        },
        {
            "bufferView" : 18,
            "componentType" : 5126,
            "count" : 120,
            "type" : "VEC2"
        },
        {
            "bufferView" : 19,
            "componentType" : 5123,
            "count" : 192,
            "type" : "SCALAR"
        },
        {
            "bufferView" : 20,
            "componentType" : 5126,
            "count" : 173,
            "max" : [
                -0.5913658142089844,
                3.03310227394104,
                1
            ],
            "min" : [
                -46.412071228027344,
                -1.033296823501587,
                -1
            ],
            "type" : "VEC3"
        },
        {
            "bufferView" : 21,
            "componentType" : 5126,
            "count" : 173,
            "type" : "VEC3"
        },
        {
            "bufferView" : 22,
            "componentType" : 5126,
            "count" : 173,
            "type" : "VEC2"
        },
        {
            "bufferView" : 23,
            "componentType" : 5123,
            "count" : 348,
            "type" : "SCALAR"
        },
        {
            "bufferView" : 24,
            "componentType" : 5126,
            "count" : 244,
            "max" : [
                1.0000001192092896,
                27.247522354125977,
                1
            ],
            "min" : [
                -1.0000001192092896,
                -1,
                -1.2911514043807983
            ],
            "type" : "VEC3"
        },
        {
            "bufferView" : 25,
            "componentType" : 5126,
            "count" : 244,
            "type" : "VEC3"
        },
        {
            "bufferView" : 26,
            "componentType" : 5126,
            "count" : 244,
            "type" : "VEC2"
        },
        {
            "bufferView" : 27,
            "componentType" : 5123,
            "count" : 408,
            "type" : "SCALAR"
        },
        {
            "bufferView" : 28,
            "componentType" : 5126,
            "count" : 144,
            "max" : [
                1.8439586162567139,
                42.7486572265625,
                0.3760445713996887
            ],
            "min" : [
                -26.40427589416504,
                -0.9740344882011414,
                -0.3768703043460846
            ],
            "type" : "VEC3"
        },
        {
            "bufferView" : 29,
            "componentType" : 5126,
            "count" : 144,
            "type" : "VEC3"
        },
        {
            "bufferView" : 30,
            "componentType" : 5126,
            "count" : 144,
            "type" : "VEC2"
        },
        {
            "bufferView" : 31,
            "componentType" : 5123,
            "count" : 240,
            "type" : "SCALAR"
        },
        {
            "bufferView" : 32,
            "componentType" : 5126,
            "count" : 223,
            "max" : [
                -0.5913658142089844,
                7.260039329528809,
                1
            ],
            "min" : [
                -24.405302047729492,
                -1.033296823501587,
                -1
            ],
            "type" : "VEC3"
        },
        {
            "bufferView" : 33,
            "componentType" : 5126,
            "count" : 223,
            "type" : "VEC3"
        },
        {
            "bufferView" : 34,
            "componentType" : 5126,
            "count" : 223,
            "type" : "VEC2"
        },
        {
            "bufferView" : 35,
            "componentType" : 5123,
            "count" : 384,
            "type" : "SCALAR"
        },
        {
            "bufferView" : 36,
            "componentType" : 5126,
            "count" : 196,
            "max" : [
                1,
                1,
                1
            ],
            "min" : [
                -13.114377975463867,
                -1,
                -1.0492935180664062
            ],
            "type" : "VEC3"
        },
        {
            "bufferView" : 37,
            "componentType" : 5126,
            "count" : 196,
            "type" : "VEC3"
        },
        {
            "bufferView" : 38,
            "componentType" : 5126,
            "count" : 196,
            "type" : "VEC2"
        },
        {
            "bufferView" : 39,
            "componentType" : 5123,
            "count" : 312,
            "type" : "SCALAR"
        }
    ],
    "bufferViews" : [
        {
            "buffer" : 0,
            "byteLength" : 192,
            "byteOffset" : 0
        },
        {
            "buffer" : 0,
            "byteLength" : 192,
            "byteOffset" : 192
        },
        {
            "buffer" : 0,
            "byteLength" : 128,
            "byteOffset" : 384
        },
        {
            "buffer" : 0,
            "byteLength" : 48,
            "byteOffset" : 512
        },
        {
            "buffer" : 0,
            "byteLength" : 4272,
            "byteOffset" : 560
        },
        {
            "buffer" : 0,
            "byteLength" : 4272,
            "byteOffset" : 4832
        },
        {
            "buffer" : 0,
            "byteLength" : 2848,
            "byteOffset" : 9104
        },
        {
            "buffer" : 0,
            "byteLength" : 1272,
            "byteOffset" : 11952
        },
        {
            "buffer" : 0,
            "byteLength" : 6624,
            "byteOffset" : 13224
        },
        {
            "buffer" : 0,
            "byteLength" : 6624,
            "byteOffset" : 19848
        },
        {
            "buffer" : 0,
            "byteLength" : 4416,
            "byteOffset" : 26472
        },
        {
            "buffer" : 0,
            "byteLength" : 2112,
            "byteOffset" : 30888
        },
        {
            "buffer" : 0,
            "byteLength" : 48,
            "byteOffset" : 33000
        },
        {
            "buffer" : 0,
            "byteLength" : 48,
            "byteOffset" : 33048
        },
        {
            "buffer" : 0,
            "byteLength" : 32,
            "byteOffset" : 33096
        },
        {
            "buffer" : 0,
            "byteLength" : 12,
            "byteOffset" : 33128
        },
        {
            "buffer" : 0,
            "byteLength" : 1440,
            "byteOffset" : 33140
        },
        {
            "buffer" : 0,
            "byteLength" : 1440,
            "byteOffset" : 34580
        },
        {
            "buffer" : 0,
            "byteLength" : 960,
            "byteOffset" : 36020
        },
        {
            "buffer" : 0,
            "byteLength" : 384,
            "byteOffset" : 36980
        },
        {
            "buffer" : 0,
            "byteLength" : 2076,
            "byteOffset" : 37364
        },
        {
            "buffer" : 0,
            "byteLength" : 2076,
            "byteOffset" : 39440
        },
        {
            "buffer" : 0,
            "byteLength" : 1384,
            "byteOffset" : 41516
        },
        {
            "buffer" : 0,
            "byteLength" : 696,
            "byteOffset" : 42900
        },
        {
            "buffer" : 0,
            "byteLength" : 2928,
            "byteOffset" : 43596
        },
        {
            "buffer" : 0,
            "byteLength" : 2928,
            "byteOffset" : 46524
        },
        {
            "buffer" : 0,
            "byteLength" : 1952,
            "byteOffset" : 49452
        },
        {
            "buffer" : 0,
            "byteLength" : 816,
            "byteOffset" : 51404
        },
        {
            "buffer" : 0,
            "byteLength" : 1728,
            "byteOffset" : 52220
        },
        {
            "buffer" : 0,
            "byteLength" : 1728,
            "byteOffset" : 53948
        },
        {
            "buffer" : 0,
            "byteLength" : 1152,
            "byteOffset" : 55676
        },
        {
            "buffer" : 0,
            "byteLength" : 480,
            "byteOffset" : 56828
        },
        {
            "buffer" : 0,
            "byteLength" : 2676,
            "byteOffset" : 57308
        },
        {
            "buffer" : 0,
            "byteLength" : 2676,
            "byteOffset" : 59984
        },
        {
            "buffer" : 0,
            "byteLength" : 1784,
            "byteOffset" : 62660
        },
        {
            "buffer" : 0,
            "byteLength" : 768,
            "byteOffset" : 64444
        },
        {
            "buffer" : 0,
            "byteLength" : 2352,
            "byteOffset" : 65212
        },
        {
            "buffer" : 0,
            "byteLength" : 2352,
            "byteOffset" : 67564
        },
        {
            "buffer" : 0,
            "byteLength" : 1568,
            "byteOffset" : 69916
        },
        {
            "buffer" : 0,
            "byteLength" : 624,
            "byteOffset" : 71484
        }
    ],
    "buffers" : [
        {
            "byteLength" : 72108,
            "uri" : "p3.bin"
        }
    ]
}
