{"buffers":[{"uri":"p8.bin","byteLength":31188}],"asset":{"version":"2.0","generator":"gltfpack 0.19"},"extensionsUsed":["KHR_mesh_quantization","KHR_materials_ior","KHR_materials_specular","KHR_lights_punctual"],"extensionsRequired":["KHR_mesh_quantization"],"bufferViews":[{"buffer":0,"byteOffset":0,"byteLength":16240,"byteStride":8,"target":34962},{"buffer":0,"byteOffset":16240,"byteLength":8120,"byteStride":4,"target":34962},{"buffer":0,"byteOffset":24360,"byteLength":6828,"target":34963}],"accessors":[{"bufferView":0,"byteOffset":0,"componentType":5123,"count":16,"type":"VEC3","min":[1019,1018,3572],"max":[15364,8190,3578]},{"bufferView":1,"byteOffset":0,"componentType":5120,"count":16,"type":"VEC3","normalized":true},{"bufferView":2,"byteOffset":0,"componentType":5123,"count":24,"type":"SCALAR"},{"bufferView":0,"byteOffset":128,"componentType":5123,"count":283,"type":"VEC3","min":[693,692,4365],"max":[15690,8516,4528]},{"bufferView":1,"byteOffset":64,"componentType":5120,"count":283,"type":"VEC3","normalized":true},{"bufferView":2,"byteOffset":48,"componentType":5123,"count":519,"type":"SCALAR"},{"bufferView":0,"byteOffset":2392,"componentType":5123,"count":97,"type":"VEC3","min":[693,692,4528],"max":[15690,8516,4528]},{"bufferView":1,"byteOffset":1196,"componentType":5120,"count":97,"type":"VEC3","normalized":true},{"bufferView":2,"byteOffset":1086,"componentType":5123,"count":183,"type":"SCALAR"},{"bufferView":0,"byteOffset":3168,"componentType":5123,"count":456,"type":"VEC3","min":[1,0,3836],"max":[16382,9209,4775]},{"bufferView":1,"byteOffset":1584,"componentType":5120,"count":456,"type":"VEC3","normalized":true},{"bufferView":2,"byteOffset":1452,"componentType":5123,"count":828,"type":"SCALAR"},{"bufferView":0,"byteOffset":6816,"componentType":5123,"count":220,"type":"VEC3","min":[0,0,0],"max":[16383,9209,4775]},{"bufferView":1,"byteOffset":3408,"componentType":5120,"count":220,"type":"VEC3","normalized":true},{"bufferView":2,"byteOffset":3108,"componentType":5123,"count":372,"type":"SCALAR"},{"bufferView":0,"byteOffset":8576,"componentType":5123,"count":240,"type":"VEC3","min":[412,411,4775],"max":[15971,8798,4789]},{"bufferView":1,"byteOffset":4288,"componentType":5120,"count":240,"type":"VEC3","normalized":true},{"bufferView":2,"byteOffset":3852,"componentType":5123,"count":240,"type":"SCALAR"},{"bufferView":0,"byteOffset":10496,"componentType":5123,"count":370,"type":"VEC3","min":[723,723,4530],"max":[15660,8486,4775]},{"bufferView":1,"byteOffset":5248,"componentType":5120,"count":370,"type":"VEC3","normalized":true},{"bufferView":2,"byteOffset":4332,"componentType":5123,"count":732,"type":"SCALAR"},{"bufferView":0,"byteOffset":13456,"componentType":5123,"count":348,"type":"VEC3","min":[576,397,3681],"max":[15807,8812,4530]},{"bufferView":1,"byteOffset":6728,"componentType":5120,"count":348,"type":"VEC3","normalized":true},{"bufferView":2,"byteOffset":5796,"componentType":5123,"count":516,"type":"SCALAR"}],"materials":[{"name":"cloth","pbrMetallicRoughness":{"baseColorFactor":[0,0.0119633032,0.800000072,1],"metallicFactor":0,"roughnessFactor":0.686546803}},{"name":"clothshade","pbrMetallicRoughness":{"baseColorFactor":[0,0.00626097247,0.303193837,1],"metallicFactor":0,"roughnessFactor":0.686546803}},{"name":"Material.001","pbrMetallicRoughness":{"baseColorFactor":[0.367273539,0.367273539,0.388702661,1],"metallicFactor":0.553398073,"roughnessFactor":0.191262141},"doubleSided":true},{"name":"wood","pbrMetallicRoughness":{"baseColorFactor":[0.0310710464,0.0125729032,0,1],"metallicFactor":0,"roughnessFactor":0.477669895},"doubleSided":true},{"name":"diamond","pbrMetallicRoughness":{"baseColorFactor":[0.800000012,0.800000012,0.800000012,1],"metallicFactor":0.772727251,"roughnessFactor":0.289610386}},{"name":"CushionBlue","pbrMetallicRoughness":{"baseColorFactor":[0.00674654124,0.115064487,0.638261437,1],"metallicFactor":0,"roughnessFactor":0.463106811}},{"name":"blackpocket","pbrMetallicRoughness":{"baseColorFactor":[0.0122153433,0.0122153433,0.0122153433,1],"metallicFactor":0,"roughnessFactor":0.714723945},"doubleSided":true,"extensions":{"KHR_materials_ior":{"ior":1.45000005},"KHR_materials_specular":{"specularColorFactor":[0.152756184,0.152756184,0.152756184]}}}],"meshes":[{"primitives":[{"attributes":{"POSITION":0,"NORMAL":1},"indices":2},{"attributes":{"POSITION":3,"NORMAL":4},"indices":5,"material":0},{"attributes":{"POSITION":6,"NORMAL":7},"indices":8,"material":1},{"attributes":{"POSITION":9,"NORMAL":10},"indices":11,"material":2},{"attributes":{"POSITION":12,"NORMAL":13},"indices":14,"material":3},{"attributes":{"POSITION":15,"NORMAL":16},"indices":17,"material":4},{"attributes":{"POSITION":18,"NORMAL":19},"indices":20,"material":5},{"attributes":{"POSITION":21,"NORMAL":22},"indices":23,"material":6}]}],"nodes":[{"mesh":0,"translation":[-25.1272106,-14.124115,-14.3901348],"scale":[0.00306747342,0.00306747342,0.00306747342]},{"name":"Point","translation":[-16,0.5,19],"extensions":{"KHR_lights_punctual":{"light":0}}},{"name":"Point.001","translation":[17,-0.200000003,20],"extensions":{"KHR_lights_punctual":{"light":1}}}],"scenes":[{"name":"Scene","nodes":[0,1,2]}],"scene":0,"extensions":{"KHR_lights_punctual":{"lights":[{"type":"point","color":[0.855544746,0.834791005,0.674365997],"intensity":2744.74634},{"type":"point","color":[0.698192716,0.698192716,0.698192716],"intensity":2793.6626}]}}}