{"asset":{"version":"2.0","generator":"gltfpack 1.2"},"extensionsUsed":["KHR_mesh_quantization","KHR_materials_ior","KHR_materials_specular","KHR_lights_punctual"],"extensionsRequired":["KHR_mesh_quantization"],"buffers":[{"uri":"p8.min.bin","byteLength":29588}],"bufferViews":[{"buffer":0,"byteOffset":0,"byteLength":15280,"byteStride":8,"target":34962},{"buffer":0,"byteOffset":15280,"byteLength":7640,"byteStride":4,"target":34962},{"buffer":0,"byteOffset":22920,"byteLength":6666,"target":34963}],"accessors":[{"bufferView":0,"byteOffset":0,"componentType":5123,"count":262,"type":"VEC3","min":[693,692,684],"max":[15690,8516,847]},{"bufferView":1,"byteOffset":0,"componentType":5120,"count":262,"type":"VEC3","normalized":true},{"bufferView":2,"byteOffset":0,"componentType":5123,"count":519,"type":"SCALAR"},{"bufferView":0,"byteOffset":2096,"componentType":5123,"count":73,"type":"VEC3","min":[693,692,847],"max":[15690,8516,847]},{"bufferView":1,"byteOffset":1048,"componentType":5120,"count":73,"type":"VEC3","normalized":true},{"bufferView":2,"byteOffset":1038,"componentType":5123,"count":183,"type":"SCALAR"},{"bufferView":0,"byteOffset":2680,"componentType":5123,"count":333,"type":"VEC3","min":[1,0,155],"max":[16382,9209,1094]},{"bufferView":1,"byteOffset":1340,"componentType":5120,"count":333,"type":"VEC3","normalized":true},{"bufferView":2,"byteOffset":1404,"componentType":5123,"count":567,"type":"SCALAR"},{"bufferView":0,"byteOffset":5344,"componentType":5123,"count":156,"type":"VEC3","min":[0,0,155],"max":[16383,9209,1094]},{"bufferView":1,"byteOffset":2672,"componentType":5120,"count":156,"type":"VEC3","normalized":true},{"bufferView":2,"byteOffset":2538,"componentType":5123,"count":252,"type":"SCALAR"},{"bufferView":0,"byteOffset":6592,"componentType":5123,"count":240,"type":"VEC3","min":[412,411,1094],"max":[15971,8798,1109]},{"bufferView":1,"byteOffset":3296,"componentType":5120,"count":240,"type":"VEC3","normalized":true},{"bufferView":2,"byteOffset":3042,"componentType":5123,"count":240,"type":"SCALAR"},{"bufferView":0,"byteOffset":8512,"componentType":5123,"count":306,"type":"VEC3","min":[723,723,849],"max":[15660,8486,1094]},{"bufferView":1,"byteOffset":4256,"componentType":5120,"count":306,"type":"VEC3","normalized":true},{"bufferView":2,"byteOffset":3522,"componentType":5123,"count":636,"type":"SCALAR"},{"bufferView":0,"byteOffset":10960,"componentType":5123,"count":540,"type":"VEC3","min":[545,390,0],"max":[15838,8819,849]},{"bufferView":1,"byteOffset":5480,"componentType":5120,"count":540,"type":"VEC3","normalized":true},{"bufferView":2,"byteOffset":4794,"componentType":5123,"count":936,"type":"SCALAR"}],"materials":[{"name":"cloth","pbrMetallicRoughness":{"baseColorFactor":[0,0.0119633032,0.800000072,1],"metallicFactor":0,"roughnessFactor":0.686546803}},{"name":"clothshade","pbrMetallicRoughness":{"baseColorFactor":[0,0.00626097247,0.303193837,1],"metallicFactor":0,"roughnessFactor":0.686546803}},{"name":"Material.001","pbrMetallicRoughness":{"baseColorFactor":[0.367273539,0.367273539,0.388702661,1],"metallicFactor":0.553398073,"roughnessFactor":0.191262141}},{"name":"wood","pbrMetallicRoughness":{"baseColorFactor":[0.0310710464,0.0125729032,0,1],"metallicFactor":0,"roughnessFactor":0.477669895}},{"name":"diamond","pbrMetallicRoughness":{"baseColorFactor":[0.800000012,0.800000012,0.800000012,1],"metallicFactor":0.772727251,"roughnessFactor":0.289610386}},{"name":"CushionBlue","pbrMetallicRoughness":{"baseColorFactor":[0.00674654124,0.115064487,0.638261437,1],"metallicFactor":0,"roughnessFactor":0.463106811}},{"name":"blackpocket","pbrMetallicRoughness":{"baseColorFactor":[0.0122153433,0.0122153433,0.0122153433,1],"metallicFactor":0,"roughnessFactor":0.714723945},"extensions":{"KHR_materials_ior":{"ior":1.45000005},"KHR_materials_specular":{"specularFactor":0.128834367}}}],"meshes":[{"primitives":[{"attributes":{"POSITION":0,"NORMAL":1},"indices":2,"material":0},{"attributes":{"POSITION":3,"NORMAL":4},"indices":5,"material":1},{"attributes":{"POSITION":6,"NORMAL":7},"indices":8,"material":2},{"attributes":{"POSITION":9,"NORMAL":10},"indices":11,"material":3},{"attributes":{"POSITION":12,"NORMAL":13},"indices":14,"material":4},{"attributes":{"POSITION":15,"NORMAL":16},"indices":17,"material":5},{"attributes":{"POSITION":18,"NORMAL":19},"indices":20,"material":6}]}],"nodes":[{"mesh":0,"translation":[-25.1272106,-14.124115,-3.09913254],"scale":[0.00306747342,0.00306747342,0.00306747342]},{"name":"Point","translation":[-16,0.5,19],"extensions":{"KHR_lights_punctual":{"light":0}}},{"name":"Point.001","translation":[17,-0.200000003,20],"extensions":{"KHR_lights_punctual":{"light":1}}}],"scenes":[{"name":"Scene","nodes":[0,1,2]}],"scene":0,"extensions":{"KHR_lights_punctual":{"lights":[{"type":"point","color":[0.855544746,0.834791005,0.674365997],"intensity":5.43514156},{"type":"point","color":[0.698192716,0.698192716,0.698192716],"intensity":5.43514156}]}}}