{
    "asset": {
        "generator": "Khronos glTF Blender I/O v3.4.50",
        "version": "2.0"
    },
    "scene": 0,
    "scenes": [
        {
            "name": "Scene",
            "nodes": [
                0
            ]
        }
    ],
    "nodes": [
        {
            "mesh": 0,
            "name": "Cube",
            "scale": [
                80,
                40,
                30
            ],
            "translation": [
                0,
                0,
                16
            ]
        }
    ],
    "materials": [
        {
            "name": "PastelRed",
            "pbrMetallicRoughness": {
                "baseColorFactor": [
                    1.0,
                    0.8,
                    0.8,
                    1.0
                ],
                "metallicFactor": 0.0,
                "roughnessFactor": 0.5
            }
        },
        {
            "name": "PastelGreen",
            "pbrMetallicRoughness": {
                "baseColorFactor": [
                    0.8,
                    1.0,
                    0.8,
                    1.0
                ],
                "metallicFactor": 0.0,
                "roughnessFactor": 0.5
            }
        },
        {
            "name": "PastelBlue",
            "pbrMetallicRoughness": {
                "baseColorFactor": [
                    0.8,
                    0.8,
                    1.0,
                    1.0
                ],
                "metallicFactor": 0.0,
                "roughnessFactor": 0.5
            }
        },
        {
            "name": "PastelYellow",
            "pbrMetallicRoughness": {
                "baseColorFactor": [
                    1.0,
                    1.0,
                    0.8,
                    1.0
                ],
                "metallicFactor": 0.0,
                "roughnessFactor": 0.5
            }
        },
        {
            "name": "PastelLavender",
            "pbrMetallicRoughness": {
                "baseColorFactor": [
                    0.9,
                    0.8,
                    1.0,
                    1.0
                ],
                "metallicFactor": 0.0,
                "roughnessFactor": 0.5
            }
        }
    ],
    "meshes": [
        {
            "name": "Cube",
            "primitives": [
                {
                    "attributes": {
                        "POSITION": 0,
                        "TEXCOORD_0": 1,
                        "NORMAL": 2
                    },
                    "indices": 3,
                    "material": 0
                },
                {
                    "attributes": {
                        "POSITION": 0,
                        "TEXCOORD_0": 1,
                        "NORMAL": 2
                    },
                    "indices": 4,
                    "material": 1
                },
                {
                    "attributes": {
                        "POSITION": 0,
                        "TEXCOORD_0": 1,
                        "NORMAL": 2
                    },
                    "indices": 5,
                    "material": 2
                },
                {
                    "attributes": {
                        "POSITION": 0,
                        "TEXCOORD_0": 1,
                        "NORMAL": 2
                    },
                    "indices": 6,
                    "material": 3
                },
                {
                    "attributes": {
                        "POSITION": 0,
                        "TEXCOORD_0": 1,
                        "NORMAL": 2
                    },
                    "indices": 7,
                    "material": 4
                }
            ]
        }
    ],
    "accessors": [
        {
            "bufferView": 0,
            "componentType": 5126,
            "count": 28,
            "max": [
                1,
                1,
                0.9999999403953552
            ],
            "min": [
                -1,
                -1,
                -0.9999999403953552
            ],
            "type": "VEC3"
        },
        {
            "bufferView": 1,
            "componentType": 5126,
            "count": 28,
            "type": "VEC2"
        },
        {
            "bufferView": 2,
            "componentType": 5126,
            "count": 28,
            "type": "VEC3"
        },
        {
            "bufferView": 3,
            "componentType": 5123,
            "count": 6,
            "type": "SCALAR"
        },
        {
            "bufferView": 4,
            "componentType": 5123,
            "count": 6,
            "type": "SCALAR"
        },
        {
            "bufferView": 5,
            "componentType": 5123,
            "count": 6,
            "type": "SCALAR"
        },
        {
            "bufferView": 6,
            "componentType": 5123,
            "count": 6,
            "type": "SCALAR"
        },
        {
            "bufferView": 7,
            "componentType": 5123,
            "count": 24,
            "type": "SCALAR"
        }
    ],
    "bufferViews": [
        {
            "buffer": 0,
            "byteLength": 336,
            "byteOffset": 0,
            "target": 34962
        },
        {
            "buffer": 0,
            "byteLength": 224,
            "byteOffset": 336,
            "target": 34962
        },
        {
            "buffer": 0,
            "byteLength": 336,
            "byteOffset": 560,
            "target": 34962
        },
        {
            "buffer": 0,
            "byteLength": 12,
            "byteOffset": 896,
            "target": 34963
        },
        {
            "buffer": 0,
            "byteLength": 12,
            "byteOffset": 908,
            "target": 34963
        },
        {
            "buffer": 0,
            "byteLength": 12,
            "byteOffset": 920,
            "target": 34963
        },
        {
            "buffer": 0,
            "byteLength": 12,
            "byteOffset": 932,
            "target": 34963
        },
        {
            "buffer": 0,
            "byteLength": 48,
            "byteOffset": 944,
            "target": 34963
        }
    ],
    "buffers": [
        {
            "byteLength": 992,
            "uri": "room.bin"
        }
    ]
}