{"asset":{"version":"2.0","generator":"gltfpack 1.2"},"extensionsUsed":["KHR_mesh_quantization","KHR_materials_ior","KHR_materials_specular","KHR_lights_punctual"],"extensionsRequired":["KHR_mesh_quantization"],"buffers":[{"uri":"snooker.min.bin","byteLength":32684}],"bufferViews":[{"buffer":0,"byteOffset":0,"byteLength":16480,"byteStride":8,"target":34962},{"buffer":0,"byteOffset":16480,"byteLength":8240,"byteStride":4,"target":34962},{"buffer":0,"byteOffset":24720,"byteLength":7962,"target":34963}],"accessors":[{"bufferView":0,"byteOffset":0,"componentType":5123,"count":290,"type":"VEC3","min":[693,692,684],"max":[15690,8516,847]},{"bufferView":1,"byteOffset":0,"componentType":5120,"count":290,"type":"VEC3","normalized":true},{"bufferView":2,"byteOffset":0,"componentType":5123,"count":603,"type":"SCALAR"},{"bufferView":0,"byteOffset":2320,"componentType":5123,"count":101,"type":"VEC3","min":[693,692,847],"max":[15690,8516,847]},{"bufferView":1,"byteOffset":1160,"componentType":5120,"count":101,"type":"VEC3","normalized":true},{"bufferView":2,"byteOffset":1206,"componentType":5123,"count":267,"type":"SCALAR"},{"bufferView":0,"byteOffset":3128,"componentType":5123,"count":333,"type":"VEC3","min":[1,0,155],"max":[16382,9209,1094]},{"bufferView":1,"byteOffset":1564,"componentType":5120,"count":333,"type":"VEC3","normalized":true},{"bufferView":2,"byteOffset":1740,"componentType":5123,"count":567,"type":"SCALAR"},{"bufferView":0,"byteOffset":5792,"componentType":5123,"count":156,"type":"VEC3","min":[0,0,155],"max":[16383,9209,1094]},{"bufferView":1,"byteOffset":2896,"componentType":5120,"count":156,"type":"VEC3","normalized":true},{"bufferView":2,"byteOffset":2874,"componentType":5123,"count":252,"type":"SCALAR"},{"bufferView":0,"byteOffset":7040,"componentType":5123,"count":640,"type":"VEC3","min":[723,723,849],"max":[15660,8486,1094]},{"bufferView":1,"byteOffset":3520,"componentType":5120,"count":640,"type":"VEC3","normalized":true},{"bufferView":2,"byteOffset":3378,"componentType":5123,"count":1356,"type":"SCALAR"},{"bufferView":0,"byteOffset":12160,"componentType":5123,"count":540,"type":"VEC3","min":[542,390,0],"max":[15841,8819,849]},{"bufferView":1,"byteOffset":6080,"componentType":5120,"count":540,"type":"VEC3","normalized":true},{"bufferView":2,"byteOffset":6090,"componentType":5123,"count":936,"type":"SCALAR"}],"materials":[{"name":"cloth","pbrMetallicRoughness":{"baseColorFactor":[0,0.303204566,0.00700047147,1],"metallicFactor":0,"roughnessFactor":0.747152865}},{"name":"clothshade","pbrMetallicRoughness":{"baseColorFactor":[0,0.119279556,0.0016561501,1],"metallicFactor":0,"roughnessFactor":0.686546803}},{"name":"Material.001","pbrMetallicRoughness":{"baseColorFactor":[0.310820282,0.126197532,0,1],"metallicFactor":0,"roughnessFactor":0.191262141}},{"name":"wood","pbrMetallicRoughness":{"baseColorFactor":[0.0352196917,0.0140256751,0,1],"metallicFactor":0,"roughnessFactor":0.477669895}},{"name":"CushionBlue","pbrMetallicRoughness":{"baseColorFactor":[0.00580338342,0.288303137,0.00789248478,1],"metallicFactor":0,"roughnessFactor":0.805098176}},{"name":"blackpocket","pbrMetallicRoughness":{"baseColorFactor":[0.0122153433,0.0122153433,0.0122153433,1],"metallicFactor":0,"roughnessFactor":0.714723945},"extensions":{"KHR_materials_ior":{"ior":1.45000005},"KHR_materials_specular":{"specularFactor":0.128834367}}}],"meshes":[{"primitives":[{"attributes":{"POSITION":0,"NORMAL":1},"indices":2,"material":0},{"attributes":{"POSITION":3,"NORMAL":4},"indices":5,"material":1},{"attributes":{"POSITION":6,"NORMAL":7},"indices":8,"material":2},{"attributes":{"POSITION":9,"NORMAL":10},"indices":11,"material":3},{"attributes":{"POSITION":12,"NORMAL":13},"indices":14,"material":4},{"attributes":{"POSITION":15,"NORMAL":16},"indices":17,"material":5}]}],"nodes":[{"mesh":0,"translation":[-25.1272106,-14.124115,-3.09913254],"scale":[0.00306747342,0.00306747342,0.00306747342]},{"name":"Point","translation":[-16,0.5,19],"extensions":{"KHR_lights_punctual":{"light":0}}},{"name":"Point.001","translation":[17,-0.200000003,20],"extensions":{"KHR_lights_punctual":{"light":1}}}],"scenes":[{"name":"Scene","nodes":[0,1,2]}],"scene":0,"extensions":{"KHR_lights_punctual":{"lights":[{"type":"point","color":[0.855544746,0.834791005,0.674365997],"intensity":5.43514156},{"type":"point","color":[0.698192716,0.698192716,0.698192716],"intensity":5.43514156}]}}}