{
    "asset" : {
        "generator" : "Khronos glTF Blender I/O v3.4.50",
        "version" : "2.0"
    },
    "extensionsUsed" : [
        "KHR_lights_punctual"
    ],
    "extensionsRequired" : [
        "KHR_lights_punctual"
    ],
    "extensions" : {
        "KHR_lights_punctual" : {
            "lights" : [
                {
                    "color" : [
                        0.8555447459220886,
                        0.8347910046577454,
                        0.6743659973144531
                    ],
                    "intensity" : 2744.7463598270538,
                    "type" : "point",
                    "name" : "Point"
                },
                {
                    "color" : [
                        0.6981927156448364,
                        0.6981927156448364,
                        0.6981927156448364
                    ],
                    "intensity" : 2793.6627145200227,
                    "type" : "point",
                    "name" : "Point.001"
                }
            ]
        }
    },
    "scene" : 0,
    "scenes" : [
        {
            "name" : "Scene",
            "nodes" : [
                0,
                1,
                2,
                3,
                4,
                5,
                6
            ]
        }
    ],
    "nodes" : [
        {
            "mesh" : 0,
            "name" : "FullCloth",
            "translation" : [
                0,
                0,
                -0.75
            ]
        },
        {
            "mesh" : 1,
            "name" : "EndRail",
            "translation" : [
                23.283540725708008,
                -9.950918197631836,
                -0.11895889788866043
            ]
        },
        {
            "mesh" : 2,
            "name" : "EndCushion",
            "scale" : [
                1,
                5.174618244171143,
                0.37582919001579285
            ],
            "translation" : [
                23.50171661376953,
                -5.17411470413208,
                -0.11999999731779099
            ]
        },
        {
            "extensions" : {
                "KHR_lights_punctual" : {
                    "light" : 0
                }
            },
            "name" : "Point",
            "translation" : [
                -16,
                0.5,
                19
            ]
        },
        {
            "extensions" : {
                "KHR_lights_punctual" : {
                    "light" : 1
                }
            },
            "name" : "Point.001",
            "translation" : [
                17,
                -0.20000000298023224,
                20
            ]
        },
        {
            "mesh" : 3,
            "name" : "SideCushion",
            "rotation" : [
                0.7071068286895752,
                0.7071068286895752,
                0,
                0
            ],
            "scale" : [
                -1,
                -5.174618244171143,
                -0.37582919001579285
            ],
            "translation" : [
                16.11050796508789,
                -12.498333930969238,
                -0.11999999731779099
            ]
        },
        {
            "mesh" : 4,
            "name" : "Legs",
            "scale" : [
                2.3899998664855957,
                11.089882850646973,
                4.689999580383301
            ],
            "translation" : [
                14.47668170928955,
                -0.1310420036315918,
                -9.468948364257812
            ]
        }
    ],
    "materials" : [
        {
            "name" : "cloth",
            "pbrMetallicRoughness" : {
                "baseColorFactor" : [
                    0,
                    0.011963303200900555,
                    0.8000000715255737,
                    1
                ],
                "metallicFactor" : 0,
                "roughnessFactor" : 0.686546802520752
            }
        },
        {
            "name" : "clothshade",
            "pbrMetallicRoughness" : {
                "baseColorFactor" : [
                    0,
                    0.00626097247004509,
                    0.3031938374042511,
                    1
                ],
                "metallicFactor" : 0,
                "roughnessFactor" : 0.686546802520752
            }
        },
        {
            "doubleSided" : true,
            "name" : "wood",
            "pbrMetallicRoughness" : {
                "baseColorFactor" : [
                    0.031071046367287636,
                    0.01257290318608284,
                    0,
                    1
                ],
                "metallicFactor" : 0,
                "roughnessFactor" : 0.477669894695282
            }
        },
        {
            "name" : "diamond",
            "pbrMetallicRoughness" : {
                "baseColorFactor" : [
                    0.800000011920929,
                    0.800000011920929,
                    0.800000011920929,
                    1
                ],
                "metallicFactor" : 0.7727272510528564,
                "roughnessFactor" : 0.2896103858947754
            }
        },
        {
            "name" : "CushionBlue",
            "pbrMetallicRoughness" : {
                "baseColorFactor" : [
                    0.006746541243046522,
                    0.11506448686122894,
                    0.6382614374160767,
                    1
                ],
                "metallicFactor" : 0,
                "roughnessFactor" : 0.46310681104660034
            }
        }
    ],
    "meshes" : [
        {
            "name" : "Cube.001",
            "primitives" : [
                {
                    "attributes" : {
                        "POSITION" : 0,
                        "TEXCOORD_0" : 1,
                        "NORMAL" : 2
                    },
                    "indices" : 3,
                    "material" : 0
                },
                {
                    "attributes" : {
                        "POSITION" : 4,
                        "TEXCOORD_0" : 5,
                        "NORMAL" : 6
                    },
                    "indices" : 7,
                    "material" : 1
                }
            ]
        },
        {
            "name" : "Cube.002",
            "primitives" : [
                {
                    "attributes" : {
                        "POSITION" : 8,
                        "TEXCOORD_0" : 9,
                        "NORMAL" : 10
                    },
                    "indices" : 11,
                    "material" : 2
                },
                {
                    "attributes" : {
                        "POSITION" : 12,
                        "TEXCOORD_0" : 13,
                        "NORMAL" : 14
                    },
                    "indices" : 15,
                    "material" : 3
                }
            ]
        },
        {
            "name" : "Cube",
            "primitives" : [
                {
                    "attributes" : {
                        "POSITION" : 16,
                        "TEXCOORD_0" : 17,
                        "NORMAL" : 18
                    },
                    "indices" : 19,
                    "material" : 4
                }
            ]
        },
        {
            "name" : "SideCushion",
            "primitives" : [
                {
                    "attributes" : {
                        "POSITION" : 20,
                        "TEXCOORD_0" : 21,
                        "NORMAL" : 22
                    },
                    "indices" : 23,
                    "material" : 4
                }
            ]
        },
        {
            "name" : "Cube.006",
            "primitives" : [
                {
                    "attributes" : {
                        "POSITION" : 24,
                        "TEXCOORD_0" : 25,
                        "NORMAL" : 26
                    },
                    "indices" : 27,
                    "material" : 2
                }
            ]
        }
    ],
    "accessors" : [
        {
            "bufferView" : 0,
            "componentType" : 5126,
            "count" : 287,
            "max" : [
                23,
                12,
                0.2500000596046448
            ],
            "min" : [
                -23,
                -12,
                -0.2500000596046448
            ],
            "type" : "VEC3"
        },
        {
            "bufferView" : 1,
            "componentType" : 5126,
            "count" : 287,
            "type" : "VEC2"
        },
        {
            "bufferView" : 2,
            "componentType" : 5126,
            "count" : 287,
            "type" : "VEC3"
        },
        {
            "bufferView" : 3,
            "componentType" : 5123,
            "count" : 519,
            "type" : "SCALAR"
        },
        {
            "bufferView" : 4,
            "componentType" : 5126,
            "count" : 97,
            "max" : [
                23,
                12,
                0.2500000596046448
            ],
            "min" : [
                -23,
                -12,
                0.2499999701976776
            ],
            "type" : "VEC3"
        },
        {
            "bufferView" : 5,
            "componentType" : 5126,
            "count" : 97,
            "type" : "VEC2"
        },
        {
            "bufferView" : 6,
            "componentType" : 5126,
            "count" : 97,
            "type" : "VEC3"
        },
        {
            "bufferView" : 7,
            "componentType" : 5123,
            "count" : 183,
            "type" : "SCALAR"
        },
        {
            "bufferView" : 8,
            "componentType" : 5126,
            "count" : 68,
            "max" : [
                1.8436678647994995,
                20.875871658325195,
                0.3760445713996887
            ],
            "min" : [
                -48.41075134277344,
                -0.9740352630615234,
                -2.504955291748047
            ],
            "type" : "VEC3"
        },
        {
            "bufferView" : 9,
            "componentType" : 5126,
            "count" : 68,
            "type" : "VEC2"
        },
        {
            "bufferView" : 10,
            "componentType" : 5126,
            "count" : 68,
            "type" : "VEC3"
        },
        {
            "bufferView" : 11,
            "componentType" : 5123,
            "count" : 108,
            "type" : "SCALAR"
        },
        {
            "bufferView" : 12,
            "componentType" : 5126,
            "count" : 96,
            "max" : [
                0.5799932479858398,
                15.592679977416992,
                0.4189234673976898
            ],
            "min" : [
                -47.14707946777344,
                4.309156894683838,
                0.37482529878616333
            ],
            "type" : "VEC3"
        },
        {
            "bufferView" : 13,
            "componentType" : 5126,
            "count" : 96,
            "type" : "VEC2"
        },
        {
            "bufferView" : 14,
            "componentType" : 5126,
            "count" : 96,
            "type" : "VEC3"
        },
        {
            "bufferView" : 15,
            "componentType" : 5123,
            "count" : 96,
            "type" : "SCALAR"
        },
        {
            "bufferView" : 16,
            "componentType" : 5126,
            "count" : 168,
            "max" : [
                -0.5913658142089844,
                3.03310227394104,
                1
            ],
            "min" : [
                -46.41206741333008,
                -1.033296823501587,
                -1
            ],
            "type" : "VEC3"
        },
        {
            "bufferView" : 17,
            "componentType" : 5126,
            "count" : 168,
            "type" : "VEC2"
        },
        {
            "bufferView" : 18,
            "componentType" : 5126,
            "count" : 168,
            "type" : "VEC3"
        },
        {
            "bufferView" : 19,
            "componentType" : 5123,
            "count" : 348,
            "type" : "SCALAR"
        },
        {
            "bufferView" : 20,
            "componentType" : 5126,
            "count" : 224,
            "max" : [
                -0.5913658142089844,
                7.260039329528809,
                1
            ],
            "min" : [
                -24.405303955078125,
                -1.033296823501587,
                -1
            ],
            "type" : "VEC3"
        },
        {
            "bufferView" : 21,
            "componentType" : 5126,
            "count" : 224,
            "type" : "VEC2"
        },
        {
            "bufferView" : 22,
            "componentType" : 5126,
            "count" : 224,
            "type" : "VEC3"
        },
        {
            "bufferView" : 23,
            "componentType" : 5123,
            "count" : 384,
            "type" : "SCALAR"
        },
        {
            "bufferView" : 24,
            "componentType" : 5126,
            "count" : 64,
            "max" : [
                1,
                1,
                1
            ],
            "min" : [
                -13.114377975463867,
                -1,
                -1.0492935180664062
            ],
            "type" : "VEC3"
        },
        {
            "bufferView" : 25,
            "componentType" : 5126,
            "count" : 64,
            "type" : "VEC2"
        },
        {
            "bufferView" : 26,
            "componentType" : 5126,
            "count" : 64,
            "type" : "VEC3"
        },
        {
            "bufferView" : 27,
            "componentType" : 5123,
            "count" : 120,
            "type" : "SCALAR"
        }
    ],
    "bufferViews" : [
        {
            "buffer" : 0,
            "byteLength" : 3444,
            "byteOffset" : 0,
            "target" : 34962
        },
        {
            "buffer" : 0,
            "byteLength" : 2296,
            "byteOffset" : 3444,
            "target" : 34962
        },
        {
            "buffer" : 0,
            "byteLength" : 3444,
            "byteOffset" : 5740,
            "target" : 34962
        },
        {
            "buffer" : 0,
            "byteLength" : 1038,
            "byteOffset" : 9184,
            "target" : 34963
        },
        {
            "buffer" : 0,
            "byteLength" : 1164,
            "byteOffset" : 10224,
            "target" : 34962
        },
        {
            "buffer" : 0,
            "byteLength" : 776,
            "byteOffset" : 11388,
            "target" : 34962
        },
        {
            "buffer" : 0,
            "byteLength" : 1164,
            "byteOffset" : 12164,
            "target" : 34962
        },
        {
            "buffer" : 0,
            "byteLength" : 366,
            "byteOffset" : 13328,
            "target" : 34963
        },
        {
            "buffer" : 0,
            "byteLength" : 816,
            "byteOffset" : 13696,
            "target" : 34962
        },
        {
            "buffer" : 0,
            "byteLength" : 544,
            "byteOffset" : 14512,
            "target" : 34962
        },
        {
            "buffer" : 0,
            "byteLength" : 816,
            "byteOffset" : 15056,
            "target" : 34962
        },
        {
            "buffer" : 0,
            "byteLength" : 216,
            "byteOffset" : 15872,
            "target" : 34963
        },
        {
            "buffer" : 0,
            "byteLength" : 1152,
            "byteOffset" : 16088,
            "target" : 34962
        },
        {
            "buffer" : 0,
            "byteLength" : 768,
            "byteOffset" : 17240,
            "target" : 34962
        },
        {
            "buffer" : 0,
            "byteLength" : 1152,
            "byteOffset" : 18008,
            "target" : 34962
        },
        {
            "buffer" : 0,
            "byteLength" : 192,
            "byteOffset" : 19160,
            "target" : 34963
        },
        {
            "buffer" : 0,
            "byteLength" : 2016,
            "byteOffset" : 19352,
            "target" : 34962
        },
        {
            "buffer" : 0,
            "byteLength" : 1344,
            "byteOffset" : 21368,
            "target" : 34962
        },
        {
            "buffer" : 0,
            "byteLength" : 2016,
            "byteOffset" : 22712,
            "target" : 34962
        },
        {
            "buffer" : 0,
            "byteLength" : 696,
            "byteOffset" : 24728,
            "target" : 34963
        },
        {
            "buffer" : 0,
            "byteLength" : 2688,
            "byteOffset" : 25424,
            "target" : 34962
        },
        {
            "buffer" : 0,
            "byteLength" : 1792,
            "byteOffset" : 28112,
            "target" : 34962
        },
        {
            "buffer" : 0,
            "byteLength" : 2688,
            "byteOffset" : 29904,
            "target" : 34962
        },
        {
            "buffer" : 0,
            "byteLength" : 768,
            "byteOffset" : 32592,
            "target" : 34963
        },
        {
            "buffer" : 0,
            "byteLength" : 768,
            "byteOffset" : 33360,
            "target" : 34962
        },
        {
            "buffer" : 0,
            "byteLength" : 512,
            "byteOffset" : 34128,
            "target" : 34962
        },
        {
            "buffer" : 0,
            "byteLength" : 768,
            "byteOffset" : 34640,
            "target" : 34962
        },
        {
            "buffer" : 0,
            "byteLength" : 240,
            "byteOffset" : 35408,
            "target" : 34963
        }
    ],
    "buffers" : [
        {
            "byteLength" : 35648,
            "uri" : "threecushion.bin"
        }
    ]
}
