{"asset":{"version":"2.0","generator":"gltfpack 1.0"},"extensionsUsed":["KHR_mesh_quantization","KHR_lights_punctual"],"extensionsRequired":["KHR_mesh_quantization"],"buffers":[{"uri":"threecushion.min.bin","byteLength":21612}],"bufferViews":[{"buffer":0,"byteOffset":0,"byteLength":11136,"byteStride":8,"target":34962},{"buffer":0,"byteOffset":11136,"byteLength":5568,"byteStride":4,"target":34962},{"buffer":0,"byteOffset":16704,"byteLength":4908,"target":34963}],"accessors":[{"bufferView":0,"byteOffset":0,"componentType":5123,"count":26,"type":"VEC3","min":[656,648,694],"max":[15731,8161,694]},{"bufferView":1,"byteOffset":0,"componentType":5120,"count":26,"type":"VEC3","normalized":true},{"bufferView":2,"byteOffset":0,"componentType":5123,"count":99,"type":"SCALAR"},{"bufferView":0,"byteOffset":208,"componentType":5123,"count":36,"type":"VEC3","min":[340,340,694],"max":[16043,8462,694]},{"bufferView":1,"byteOffset":104,"componentType":5120,"count":36,"type":"VEC3","normalized":true},{"bufferView":2,"byteOffset":198,"componentType":5123,"count":111,"type":"SCALAR"},{"bufferView":0,"byteOffset":496,"componentType":5123,"count":660,"type":"VEC3","min":[0,0,0],"max":[16383,8832,942]},{"bufferView":1,"byteOffset":248,"componentType":5120,"count":660,"type":"VEC3","normalized":true},{"bufferView":2,"byteOffset":420,"componentType":5123,"count":1248,"type":"SCALAR"},{"bufferView":0,"byteOffset":5776,"componentType":5123,"count":368,"type":"VEC3","min":[126,135,942],"max":[16257,8698,956]},{"bufferView":1,"byteOffset":2888,"componentType":5120,"count":368,"type":"VEC3","normalized":true},{"bufferView":2,"byteOffset":2916,"componentType":5123,"count":384,"type":"SCALAR"},{"bufferView":0,"byteOffset":8720,"componentType":5123,"count":302,"type":"VEC3","min":[367,366,696],"max":[16016,8467,942]},{"bufferView":1,"byteOffset":4360,"componentType":5120,"count":302,"type":"VEC3","normalized":true},{"bufferView":2,"byteOffset":3684,"componentType":5123,"count":612,"type":"SCALAR"}],"materials":[{"name":"cloth","pbrMetallicRoughness":{"baseColorFactor":[0,0.0119633032,0.800000072,1],"metallicFactor":0,"roughnessFactor":0.686546803}},{"name":"clothshade","pbrMetallicRoughness":{"baseColorFactor":[0,0.00626097247,0.303193837,1],"metallicFactor":0,"roughnessFactor":0.686546803}},{"name":"wood","pbrMetallicRoughness":{"baseColorFactor":[0.0310710464,0.0125729032,0,1],"metallicFactor":0,"roughnessFactor":0.477669895}},{"name":"diamond","pbrMetallicRoughness":{"baseColorFactor":[0.800000012,0.800000012,0.800000012,1],"metallicFactor":0.772727251,"roughnessFactor":0.289610386}},{"name":"CushionBlue","pbrMetallicRoughness":{"baseColorFactor":[0.00674654124,0.115064487,0.638261437,1],"metallicFactor":0,"roughnessFactor":0.463106811}}],"meshes":[{"primitives":[{"attributes":{"POSITION":0,"NORMAL":1},"indices":2,"material":0},{"attributes":{"POSITION":3,"NORMAL":4},"indices":5,"material":1},{"attributes":{"POSITION":6,"NORMAL":7},"indices":8,"material":2},{"attributes":{"POSITION":9,"NORMAL":10},"indices":11,"material":3},{"attributes":{"POSITION":12,"NORMAL":13},"indices":14,"material":4}]}],"nodes":[{"mesh":0,"translation":[-25.054697,-13.507369,-2.62391424],"scale":[0.00305862166,0.00305862166,0.00305862166]},{"name":"Point","translation":[-14.7776003,0.461800009,19],"scale":[0.923600018,0.923600018,1],"extensions":{"KHR_lights_punctual":{"light":0}}},{"name":"Point.001","translation":[15.7012005,-0.18472001,20],"scale":[0.923600018,0.923600018,1],"extensions":{"KHR_lights_punctual":{"light":1}}}],"scenes":[{"name":"Scene","nodes":[0,1,2]}],"scene":0,"extensions":{"KHR_lights_punctual":{"lights":[{"type":"point","color":[0.855544746,0.834791005,0.674365997],"intensity":5.43514156},{"type":"point","color":[0.698192716,0.698192716,0.698192716],"intensity":5.43514156}]}}}