{
    "asset" : {
        "generator" : "Khronos glTF Blender I/O v3.4.50",
        "version" : "2.0"
    },
    "extensionsUsed" : [
        "KHR_lights_punctual"
    ],
    "extensionsRequired" : [
        "KHR_lights_punctual"
    ],
    "extensions" : {
        "KHR_lights_punctual" : {
            "lights" : [
                {
                    "color" : [
                        0.8555447459220886,
                        0.8347910046577454,
                        0.6743659973144531
                    ],
                    "intensity" : 2744.7463598270538,
                    "type" : "point",
                    "name" : "Point"
                },
                {
                    "color" : [
                        0.6981927156448364,
                        0.6981927156448364,
                        0.6981927156448364
                    ],
                    "intensity" : 2793.6627145200227,
                    "type" : "point",
                    "name" : "Point.001"
                }
            ]
        }
    },
    "scene" : 0,
    "scenes" : [
        {
            "name" : "Scene",
            "nodes" : [
                0,
                1,
                2,
                3,
                4,
                5
            ]
        }
    ],
    "nodes" : [
        {
            "mesh" : 0,
            "name" : "FullCloth",
            "translation" : [
                0,
                0,
                -0.75
            ]
        },
        {
            "mesh" : 1,
            "name" : "EndCushion",
            "scale" : [
                1,
                5.174618244171143,
                0.37582919001579285
            ],
            "translation" : [
                23.50171661376953,
                -5.17411470413208,
                -0.11999999731779099
            ]
        },
        {
            "extensions" : {
                "KHR_lights_punctual" : {
                    "light" : 0
                }
            },
            "name" : "Point",
            "translation" : [
                -16,
                0.5,
                19
            ]
        },
        {
            "extensions" : {
                "KHR_lights_punctual" : {
                    "light" : 1
                }
            },
            "name" : "Point.001",
            "translation" : [
                17,
                -0.20000000298023224,
                20
            ]
        },
        {
            "mesh" : 2,
            "name" : "SideCushion",
            "rotation" : [
                0.7071068286895752,
                0.7071068286895752,
                0,
                0
            ],
            "scale" : [
                -1,
                -5.174618244171143,
                -0.37582919001579285
            ],
            "translation" : [
                16.11050796508789,
                -12.498333930969238,
                -0.11999999731779099
            ]
        },
        {
            "mesh" : 3,
            "name" : "Legs",
            "scale" : [
                2.3899998664855957,
                11.089882850646973,
                4.689999580383301
            ],
            "translation" : [
                14.47668170928955,
                -0.1310420036315918,
                -9.468948364257812
            ]
        }
    ],
    "materials" : [
        {
            "name" : "cloth",
            "pbrMetallicRoughness" : {
                "baseColorFactor" : [
                    0,
                    0.011963303200900555,
                    0.8000000715255737,
                    1
                ],
                "metallicFactor" : 0,
                "roughnessFactor" : 0.686546802520752
            }
        },
        {
            "name" : "clothshade",
            "pbrMetallicRoughness" : {
                "baseColorFactor" : [
                    0,
                    0.00626097247004509,
                    0.3031938374042511,
                    1
                ],
                "metallicFactor" : 0,
                "roughnessFactor" : 0.686546802520752
            }
        },
        {
            "name" : "CushionBlue",
            "pbrMetallicRoughness" : {
                "baseColorFactor" : [
                    0.006746541243046522,
                    0.11506448686122894,
                    0.6382614374160767,
                    1
                ],
                "metallicFactor" : 0,
                "roughnessFactor" : 0.46310681104660034
            }
        },
        {
            "doubleSided" : true,
            "name" : "wood",
            "pbrMetallicRoughness" : {
                "baseColorFactor" : [
                    0.031071046367287636,
                    0.01257290318608284,
                    0,
                    1
                ],
                "metallicFactor" : 0,
                "roughnessFactor" : 0.477669894695282
            }
        }
    ],
    "meshes" : [
        {
            "name" : "Cube.001",
            "primitives" : [
                {
                    "attributes" : {
                        "POSITION" : 0,
                        "TEXCOORD_0" : 1,
                        "NORMAL" : 2
                    },
                    "indices" : 3,
                    "material" : 0
                },
                {
                    "attributes" : {
                        "POSITION" : 4,
                        "TEXCOORD_0" : 5,
                        "NORMAL" : 6
                    },
                    "indices" : 7,
                    "material" : 1
                }
            ]
        },
        {
            "name" : "Cube",
            "primitives" : [
                {
                    "attributes" : {
                        "POSITION" : 8,
                        "TEXCOORD_0" : 9,
                        "NORMAL" : 10
                    },
                    "indices" : 11,
                    "material" : 2
                }
            ]
        },
        {
            "name" : "SideCushion",
            "primitives" : [
                {
                    "attributes" : {
                        "POSITION" : 12,
                        "TEXCOORD_0" : 13,
                        "NORMAL" : 14
                    },
                    "indices" : 15,
                    "material" : 2
                }
            ]
        },
        {
            "name" : "Cube.006",
            "primitives" : [
                {
                    "attributes" : {
                        "POSITION" : 16,
                        "TEXCOORD_0" : 17,
                        "NORMAL" : 18
                    },
                    "indices" : 19,
                    "material" : 3
                }
            ]
        }
    ],
    "accessors" : [
        {
            "bufferView" : 0,
            "componentType" : 5126,
            "count" : 52,
            "max" : [
                21.968029022216797,
                11,
                0.25
            ],
            "min" : [
                -21.954999923706055,
                -10.979999542236328,
                0.25
            ],
            "type" : "VEC3"
        },
        {
            "bufferView" : 1,
            "componentType" : 5126,
            "count" : 52,
            "type" : "VEC2"
        },
        {
            "bufferView" : 2,
            "componentType" : 5126,
            "count" : 52,
            "type" : "VEC3"
        },
        {
            "bufferView" : 3,
            "componentType" : 5123,
            "count" : 99,
            "type" : "SCALAR"
        },
        {
            "bufferView" : 4,
            "componentType" : 5126,
            "count" : 62,
            "max" : [
                23,
                12,
                0.25
            ],
            "min" : [
                -23,
                -12,
                0.25
            ],
            "type" : "VEC3"
        },
        {
            "bufferView" : 5,
            "componentType" : 5126,
            "count" : 62,
            "type" : "VEC2"
        },
        {
            "bufferView" : 6,
            "componentType" : 5126,
            "count" : 62,
            "type" : "VEC3"
        },
        {
            "bufferView" : 7,
            "componentType" : 5123,
            "count" : 111,
            "type" : "SCALAR"
        },
        {
            "bufferView" : 8,
            "componentType" : 5126,
            "count" : 158,
            "max" : [
                -0.5913658142089844,
                3.3022665977478027,
                1
            ],
            "min" : [
                -46.41206741333008,
                -1.3024611473083496,
                -1
            ],
            "type" : "VEC3"
        },
        {
            "bufferView" : 9,
            "componentType" : 5126,
            "count" : 158,
            "type" : "VEC2"
        },
        {
            "bufferView" : 10,
            "componentType" : 5126,
            "count" : 158,
            "type" : "VEC3"
        },
        {
            "bufferView" : 11,
            "componentType" : 5123,
            "count" : 348,
            "type" : "SCALAR"
        },
        {
            "bufferView" : 12,
            "componentType" : 5126,
            "count" : 222,
            "max" : [
                -0.5913657546043396,
                7.540308475494385,
                1
            ],
            "min" : [
                -24.405303955078125,
                -1.3135658502578735,
                -1
            ],
            "type" : "VEC3"
        },
        {
            "bufferView" : 13,
            "componentType" : 5126,
            "count" : 222,
            "type" : "VEC2"
        },
        {
            "bufferView" : 14,
            "componentType" : 5126,
            "count" : 222,
            "type" : "VEC3"
        },
        {
            "bufferView" : 15,
            "componentType" : 5123,
            "count" : 384,
            "type" : "SCALAR"
        },
        {
            "bufferView" : 16,
            "componentType" : 5126,
            "count" : 64,
            "max" : [
                1,
                1,
                1
            ],
            "min" : [
                -13.114377975463867,
                -1,
                -1.0492935180664062
            ],
            "type" : "VEC3"
        },
        {
            "bufferView" : 17,
            "componentType" : 5126,
            "count" : 64,
            "type" : "VEC2"
        },
        {
            "bufferView" : 18,
            "componentType" : 5126,
            "count" : 64,
            "type" : "VEC3"
        },
        {
            "bufferView" : 19,
            "componentType" : 5123,
            "count" : 120,
            "type" : "SCALAR"
        }
    ],
    "bufferViews" : [
        {
            "buffer" : 0,
            "byteLength" : 624,
            "byteOffset" : 0,
            "target" : 34962
        },
        {
            "buffer" : 0,
            "byteLength" : 416,
            "byteOffset" : 624,
            "target" : 34962
        },
        {
            "buffer" : 0,
            "byteLength" : 624,
            "byteOffset" : 1040,
            "target" : 34962
        },
        {
            "buffer" : 0,
            "byteLength" : 198,
            "byteOffset" : 1664,
            "target" : 34963
        },
        {
            "buffer" : 0,
            "byteLength" : 744,
            "byteOffset" : 1864,
            "target" : 34962
        },
        {
            "buffer" : 0,
            "byteLength" : 496,
            "byteOffset" : 2608,
            "target" : 34962
        },
        {
            "buffer" : 0,
            "byteLength" : 744,
            "byteOffset" : 3104,
            "target" : 34962
        },
        {
            "buffer" : 0,
            "byteLength" : 222,
            "byteOffset" : 3848,
            "target" : 34963
        },
        {
            "buffer" : 0,
            "byteLength" : 1896,
            "byteOffset" : 4072,
            "target" : 34962
        },
        {
            "buffer" : 0,
            "byteLength" : 1264,
            "byteOffset" : 5968,
            "target" : 34962
        },
        {
            "buffer" : 0,
            "byteLength" : 1896,
            "byteOffset" : 7232,
            "target" : 34962
        },
        {
            "buffer" : 0,
            "byteLength" : 696,
            "byteOffset" : 9128,
            "target" : 34963
        },
        {
            "buffer" : 0,
            "byteLength" : 2664,
            "byteOffset" : 9824,
            "target" : 34962
        },
        {
            "buffer" : 0,
            "byteLength" : 1776,
            "byteOffset" : 12488,
            "target" : 34962
        },
        {
            "buffer" : 0,
            "byteLength" : 2664,
            "byteOffset" : 14264,
            "target" : 34962
        },
        {
            "buffer" : 0,
            "byteLength" : 768,
            "byteOffset" : 16928,
            "target" : 34963
        },
        {
            "buffer" : 0,
            "byteLength" : 768,
            "byteOffset" : 17696,
            "target" : 34962
        },
        {
            "buffer" : 0,
            "byteLength" : 512,
            "byteOffset" : 18464,
            "target" : 34962
        },
        {
            "buffer" : 0,
            "byteLength" : 768,
            "byteOffset" : 18976,
            "target" : 34962
        },
        {
            "buffer" : 0,
            "byteLength" : 240,
            "byteOffset" : 19744,
            "target" : 34963
        }
    ],
    "buffers" : [
        {
            "byteLength" : 19984,
            "uri" : "threecushion.bin"
        }
    ]
}
