{"buffers":[{"uri":"threecushion.min.bin","byteLength":23544}],"asset":{"version":"2.0","generator":"gltfpack 0.19"},"extensionsUsed":["KHR_mesh_quantization","KHR_lights_punctual"],"extensionsRequired":["KHR_mesh_quantization"],"bufferViews":[{"buffer":0,"byteOffset":0,"byteLength":12264,"byteStride":8,"target":34962},{"buffer":0,"byteOffset":12264,"byteLength":6132,"byteStride":4,"target":34962},{"buffer":0,"byteOffset":18396,"byteLength":5148,"target":34963}],"accessors":[{"bufferView":0,"byteOffset":0,"componentType":5123,"count":26,"type":"VEC3","min":[924,916,619],"max":[15463,8162,619]},{"bufferView":1,"byteOffset":0,"componentType":5120,"count":26,"type":"VEC3","normalized":true},{"bufferView":2,"byteOffset":0,"componentType":5123,"count":99,"type":"SCALAR"},{"bufferView":0,"byteOffset":208,"componentType":5123,"count":40,"type":"VEC3","min":[619,619,619],"max":[15764,8453,619]},{"bufferView":1,"byteOffset":104,"componentType":5120,"count":40,"type":"VEC3","normalized":true},{"bufferView":2,"byteOffset":198,"componentType":5123,"count":111,"type":"SCALAR"},{"bufferView":0,"byteOffset":528,"componentType":5123,"count":663,"type":"VEC3","min":[0,0,0],"max":[16383,9101,839]},{"bufferView":1,"byteOffset":264,"componentType":5120,"count":663,"type":"VEC3","normalized":true},{"bufferView":2,"byteOffset":420,"componentType":5123,"count":1248,"type":"SCALAR"},{"bufferView":0,"byteOffset":5832,"componentType":5123,"count":384,"type":"VEC3","min":[368,368,839],"max":[16015,8733,852]},{"bufferView":1,"byteOffset":2916,"componentType":5120,"count":384,"type":"VEC3","normalized":true},{"bufferView":2,"byteOffset":2916,"componentType":5123,"count":384,"type":"SCALAR"},{"bufferView":0,"byteOffset":8904,"componentType":5123,"count":420,"type":"VEC3","min":[646,644,620],"max":[15737,8457,839]},{"bufferView":1,"byteOffset":4452,"componentType":5120,"count":420,"type":"VEC3","normalized":true},{"bufferView":2,"byteOffset":3684,"componentType":5123,"count":732,"type":"SCALAR"}],"materials":[{"name":"cloth","pbrMetallicRoughness":{"baseColorFactor":[0,0.0119633032,0.800000072,1],"metallicFactor":0,"roughnessFactor":0.686546803}},{"name":"clothshade","pbrMetallicRoughness":{"baseColorFactor":[0,0.00626097247,0.303193837,1],"metallicFactor":0,"roughnessFactor":0.686546803}},{"name":"wood","pbrMetallicRoughness":{"baseColorFactor":[0.0310710464,0.0125729032,0,1],"metallicFactor":0,"roughnessFactor":0.477669895},"doubleSided":true},{"name":"diamond","pbrMetallicRoughness":{"baseColorFactor":[0.800000012,0.800000012,0.800000012,1],"metallicFactor":0.772727251,"roughnessFactor":0.289610386}},{"name":"CushionBlue","pbrMetallicRoughness":{"baseColorFactor":[0.00674654124,0.115064487,0.638261437,1],"metallicFactor":0,"roughnessFactor":0.463106811}}],"meshes":[{"primitives":[{"attributes":{"POSITION":0,"NORMAL":1},"indices":2,"material":0},{"attributes":{"POSITION":3,"NORMAL":4},"indices":5,"material":1},{"attributes":{"POSITION":6,"NORMAL":7},"indices":8,"material":2},{"attributes":{"POSITION":9,"NORMAL":10},"indices":11,"material":3},{"attributes":{"POSITION":12,"NORMAL":13},"indices":14,"material":4}]}],"nodes":[{"mesh":0,"translation":[-28.1271667,-15.6246929,-2.62391496],"scale":[0.00343370158,0.00343370158,0.00343370158]},{"name":"Point","translation":[-16,0.5,19],"extensions":{"KHR_lights_punctual":{"light":0}}},{"name":"Point.001","translation":[17,-0.200000003,20],"extensions":{"KHR_lights_punctual":{"light":1}}}],"scenes":[{"name":"Scene","nodes":[0,1,2]}],"scene":0,"extensions":{"KHR_lights_punctual":{"lights":[{"type":"point","color":[0.855544746,0.834791005,0.674365997],"intensity":5.43514156},{"type":"point","color":[0.698192716,0.698192716,0.698192716],"intensity":5.43514156}]}}}