<svg
  xmlns:x="http://ns.adobe.com/Extensibility/1.0/"
  xmlns:i="http://ns.adobe.com/AdobeIllustrator/10.0/"
  xmlns:graph="http://ns.adobe.com/Graphs/1.0/"
  xmlns="http://www.w3.org/2000/svg"
  xmlns:xlink="http://www.w3.org/1999/xlink"
  xmlns:a="http://ns.adobe.com/AdobeSVGViewerExtensions/3.0/"
  version="1.1"
  x="0px"
  y="0px"
  viewBox="0 0 750 750"
  enable-background="new 0 0 750 750"
  xml:space="preserve"
>
  <metadata>
    <sfw xmlns="http://ns.adobe.com/SaveForWeb/1.0/">
      <slices />
      <sliceSourceBounds
        bottomLeftOrigin="true"
        height="6973.322"
        width="5202"
        x="-1190.0"
        y="-1843.5"
      />
    </sfw>
  </metadata>
  <style>
    path,
    line,
    polyline {
      fill: none;
      stroke: #000;
      stroke-width: var(--sw, 0.25);
      stroke-linecap: round;
      stroke-linejoin: round;
    }
  </style>

  <g>
    <g>
      <path
        d="M609.4,375.0L609.4,273.9L609.3,273.3L609.4,272.7L609.6,272.4L610.0,272.1L617.7,264.4L618.2,263.9L618.8,263.4L618.8,486.6L609.9,477.8L609.5,477.4L609.4,476.9L609.4,475.9L609.4,474.9L609.4,375.0"
      />
    </g>
    <g>
      <path
        d="M140.6,375.0L140.6,273.9L140.7,273.3L140.6,272.7L140.4,272.4L140.0,272.1L131.8,263.9L131.3,263.4L131.3,486.6L140.1,477.8L140.5,477.4L140.6,476.9L140.6,475.9L140.6,474.9L140.6,375.0"
      />
    </g>
    <g>
      <path
        d="M365.2,248.4L366.0,245.3L367.4,242.4L368.9,240.7L370.8,239.4L375.6,238.4L380.2,240.0L381.9,241.4L383.1,243.2L383.6,244.0L383.9,244.9L384.5,247.3L384.6,249.7L381.0,254.3L375.1,255.7L369.2,254.4L365.4,249.8L365.3,249.1L365.2,248.4"
      />
    </g>
    <g>
      <path
        d="M134.4,266.5L130.1,262.2L128.9,261.0L127.7,259.6L126.2,257.1L125.6,254.2L126.6,248.5L130.5,244.3L136.1,242.7L141.7,244.3L142.8,245.1L143.8,246.1L146.2,248.5L148.7,250.9L149.2,251.6L149.3,252.4L149.2,253.7L149.1,255.0L148.8,257.1L148.2,259.2L146.7,261.9L144.4,264.1L140.8,265.8L136.8,266.4L135.6,266.5L134.4,266.5"
      />
    </g>
    <g>
      <path
        d="M362.7,257.8L364.0,253.1L365.2,248.4L155.6,248.4L151.1,248.4L146.6,248.4L146.4,248.4L146.2,248.4L154.7,256.9L155.5,257.7L156.6,257.8L362.7,257.8"
      />
    </g>
    <g>
      <path d="M141.9,244.5L141.9,225.0" />
    </g>
    <g>
      <path d="M107.8,259.1L127.3,259.1" />
    </g>
    <g>
      <path d="M642.2,259.1L622.7,259.1" />
    </g>
    <g>
      <path d="M608.1,244.5L608.1,225.0" />
    </g>
    <g>
      <path
        d="M387.3,257.8L386.1,253.1L384.8,248.4L594.5,248.4L599.0,248.4L603.5,248.4L603.7,248.4L603.8,248.4L595.3,256.9L594.5,257.7L593.5,257.8L387.3,257.8"
      />
    </g>
    <g>
      <path
        d="M615.6,266.5L619.9,262.2L621.2,261.0L622.3,259.6L623.8,257.1L624.5,254.2L623.4,248.5L619.5,244.3L613.9,242.7L608.3,244.3L607.2,245.1L606.2,246.1L603.8,248.5L601.3,250.9L600.8,251.6L600.7,252.4L600.8,253.7L600.9,255.0L601.2,257.1L601.8,259.2L603.3,261.9L605.6,264.1L609.2,265.8L613.2,266.4L614.4,266.5L615.6,266.5"
      />
    </g>
    <g>
      <path
        d="M615.6,483.5L619.9,487.8L621.2,489.0L622.3,490.4L623.8,492.9L624.5,495.8L623.4,501.5L619.5,505.7L613.9,507.3L608.3,505.7L607.2,504.9L606.2,503.9L603.8,501.5L601.3,499.1L600.8,498.4L600.7,497.6L600.8,496.3L600.9,495.0L601.2,492.9L601.8,490.8L603.3,488.1L605.6,485.9L609.2,484.2L613.2,483.6L614.4,483.5L615.6,483.5"
      />
    </g>
    <g>
      <path
        d="M387.3,492.2L386.1,496.9L384.8,501.6L594.5,501.6L599.0,501.6L603.5,501.6L603.7,501.6L603.8,501.6L595.3,493.1L594.5,492.3L593.5,492.2L387.3,492.2"
      />
    </g>
    <g>
      <path d="M608.1,505.5L608.1,525.0" />
    </g>
    <g>
      <path d="M642.2,490.9L622.7,490.9" />
    </g>
    <g>
      <path d="M107.8,490.9L127.3,490.9" />
    </g>
    <g>
      <path d="M141.9,505.5L141.9,525.0" />
    </g>
    <g>
      <path
        d="M362.7,492.2L364.0,496.9L365.2,501.6L155.6,501.6L151.1,501.6L146.6,501.6L146.4,501.6L146.2,501.6L154.7,493.1L155.5,492.3L156.6,492.2L362.7,492.2"
      />
    </g>
    <g>
      <path
        d="M134.4,483.5L130.1,487.8L128.9,489.0L127.7,490.4L126.2,492.9L125.6,495.8L126.6,501.5L130.5,505.7L136.1,507.3L141.7,505.7L142.8,504.9L143.8,503.9L146.2,501.5L148.7,499.1L149.2,498.4L149.3,497.6L149.2,496.3L149.1,495.0L148.8,492.9L148.2,490.8L146.7,488.1L144.4,485.9L140.8,484.2L136.8,483.6L135.6,483.5L134.4,483.5"
      />
    </g>
    <g>
      <path
        d="M365.2,501.6L366.0,504.7L367.4,507.6L368.9,509.3L370.8,510.6L375.6,511.6L380.2,510.0L381.9,508.6L383.1,506.8L383.6,506.0L383.9,505.1L384.5,502.7L384.6,500.3L381.0,495.7L375.1,494.3L369.2,495.6L365.4,500.2L365.3,500.9L365.2,501.6"
      />
    </g>
    <g>
      <path
        d="M621.1,225.0L628.7,226.4L635.3,230.5L639.9,236.6L642.1,244.0L642.2,246.8L642.2,249.6L642.2,501.3L642.2,504.6L641.8,507.8L639.1,515.0L633.9,520.7L627.8,523.9L621.1,525.0L619.5,525.0L618.0,525.0L131.2,525.0L129.7,525.0L128.2,525.0L120.8,523.4L114.3,519.2L109.8,512.9L107.9,505.4L107.8,502.8L107.8,500.1L107.8,248.5L107.9,245.1L108.3,241.7L111.3,234.5L116.6,228.9L122.5,226.0L129.0,225.0L130.6,225.0L132.2,225.0L619.0,225.0L620.0,225.0L621.1,225.0"
      />
    </g>
  </g>
</svg>
