# Blender v2.74 (sub 0) OBJ File: ''
# www.blender.org
mtllib untitled-scene.mtl
o box1
v 1.000000 0.100000 0.500000
v 1.000000 0.100000 -0.500000
v 1.000000 -0.100000 0.500000
v 1.000000 -0.100000 -0.500000
v -1.000000 0.100000 -0.500000
v -1.000000 0.100000 0.500000
v -1.000000 -0.100000 -0.500000
v -1.000000 -0.100000 0.500000
v -0.916966 0.100000 0.500000
v -0.916966 0.100000 -0.500000
v -1.000000 0.100000 0.406023
v -0.916966 0.100000 0.406226
v -1.000000 -0.100000 0.406023
v 1.000000 -0.100000 0.410913
v 0.919519 -0.100000 0.500000
v 0.919519 0.100000 0.500000
v 0.919519 -0.100000 -0.500000
v 0.919519 0.100000 -0.500000
v 0.919519 -0.100000 0.410717
v 0.919519 0.100000 -0.411052
v -0.916966 0.100000 -0.411052
v 0.919519 0.100000 0.405782
v -0.916966 0.100000 0.405782
v 0.919519 0.029373 -0.411052
v 0.919519 0.029373 0.405782
v -0.916966 0.029373 -0.411052
v -0.916966 0.029373 0.405782
vt 0.000000 1.000000
vt 0.000000 0.000000
vt 0.089087 0.000000
vt 1.000000 0.000000
vt 1.000000 1.000000
vt 0.906023 0.000000
vt 0.906023 1.000000
vt 0.000000 0.093977
vt 0.041517 0.093774
vt 0.041517 0.094218
vt 0.041517 0.911052
vt 0.041517 1.000000
vt 0.959760 0.000000
vt 0.959760 1.000000
vt 0.040240 0.000000
vt 0.040240 1.000000
vt 0.041517 0.000000
vt 0.959760 0.094218
vt 0.000000 0.906023
vt 0.959760 0.910717
vt 0.958483 1.000000
vt 0.959760 0.911052
vt 1.000000 0.910913
vn 1.000000 0.000000 0.000000
vn -1.000000 0.000000 0.000000
vn 0.000000 1.000000 0.000000
vn 0.000000 0.000000 1.000000
vn 0.000000 0.000000 -1.000000
vn 0.000000 -1.000000 0.000000
usemtl box1Default
s off
f 1/1/1 3/2/1 14/3/1 4/4/1 2/5/1
f 5/1/2 7/2/2 13/6/2 8/4/2 6/5/2 11/7/2
f 5/1/3 11/8/3 12/9/3 23/10/3 21/11/3 10/12/3
f 6/1/4 8/2/4 15/13/4 16/14/4 9/12/4
f 2/1/5 4/2/5 17/15/5 18/16/5
f 9/17/3 16/13/3 22/18/3 23/10/3 12/9/3
f 13/19/6 7/2/6 17/13/6 19/20/6
f 15/13/4 3/4/4 1/5/4 16/14/4
f 17/15/5 7/4/5 5/5/5 10/21/5 18/16/5
f 16/13/3 1/4/3 2/5/3 18/14/3 20/22/3 22/18/3
f 17/13/6 4/4/6 14/23/6 19/20/6
f 20/22/3 18/14/3 10/12/3 21/11/3
f 25/18/3 24/22/3 26/11/3 27/10/3
f 22/2/2 20/2/2 24/2/2 25/2/2
f 20/2/4 21/2/4 26/2/4 24/2/4
f 21/2/1 23/2/1 27/2/1 26/2/1
f 23/2/5 22/2/5 25/2/5 27/2/5
